# Tiled2Unity generated file. Do not modify by hand.
# Wavefront file for 'CutMan-WithLadders_mesh_0002.obj'

# Vertices (Count = 32)
v -80 -112 0
v -96 -112 0
v -96 -96 0
v -80 -96 0
v -160 -112 0
v -176 -112 0
v -176 -96 0
v -160 -96 0
v -80 -128 0
v -96 -128 0
v -96 -112 0
v -80 -112 0
v -160 -128 0
v -176 -128 0
v -176 -112 0
v -160 -112 0
v -80 -144 0
v -96 -144 0
v -96 -128 0
v -80 -128 0
v -80 -160 0
v -96 -160 0
v -96 -144 0
v -80 -144 0
v -80 -176 0
v -96 -176 0
v -96 -160 0
v -80 -160 0
v -80 -192 0
v -96 -192 0
v -96 -176 0
v -80 -176 0

# Texture cooridinates (Count = 4)
vt 0.5 0.125
vt 0.625 0.125
vt 0.625 0.25
vt 0.5 0.25

# Normal
vn 0 0 -1

# Mesh description
g CutMan-WithLadders_mesh_0002

# Faces
f 1/1/1 2/2/1 3/3/1 4/4/1
f 5/1/1 6/2/1 7/3/1 8/4/1
f 9/1/1 10/2/1 11/3/1 12/4/1
f 13/1/1 14/2/1 15/3/1 16/4/1
f 17/1/1 18/2/1 19/3/1 20/4/1
f 21/1/1 22/2/1 23/3/1 24/4/1
f 25/1/1 26/2/1 27/3/1 28/4/1
f 29/1/1 30/2/1 31/3/1 32/4/1

