# Tiled2Unity generated file. Do not modify by hand.
# Wavefront file for 'FlashmanLair_mesh_0001.obj'

# Vertices (Count = 696)
v 0 -16 0
v -16 -16 0
v -16 0 0
v 0 0 0
v -16 -16 0
v -32 -16 0
v -32 0 0
v -16 0 0
v -32 -16 0
v -48 -16 0
v -48 0 0
v -32 0 0
v -48 -16 0
v -64 -16 0
v -64 0 0
v -48 0 0
v -64 -16 0
v -80 -16 0
v -80 0 0
v -64 0 0
v -80 -16 0
v -96 -16 0
v -96 0 0
v -80 0 0
v -96 -16 0
v -112 -16 0
v -112 0 0
v -96 0 0
v -112 -16 0
v -128 -16 0
v -128 0 0
v -112 0 0
v -128 -16 0
v -144 -16 0
v -144 0 0
v -128 0 0
v -144 -16 0
v -160 -16 0
v -160 0 0
v -144 0 0
v -160 -16 0
v -176 -16 0
v -176 0 0
v -160 0 0
v -176 -16 0
v -192 -16 0
v -192 0 0
v -176 0 0
v -192 -16 0
v -208 -16 0
v -208 0 0
v -192 0 0
v -208 -16 0
v -224 -16 0
v -224 0 0
v -208 0 0
v -224 -16 0
v -240 -16 0
v -240 0 0
v -224 0 0
v -240 -16 0
v -256 -16 0
v -256 0 0
v -240 0 0
v -16 -48 0
v -32 -48 0
v -32 -32 0
v -16 -32 0
v -32 -48 0
v -48 -48 0
v -48 -32 0
v -32 -32 0
v -48 -48 0
v -64 -48 0
v -64 -32 0
v -48 -32 0
v -64 -48 0
v -80 -48 0
v -80 -32 0
v -64 -32 0
v -80 -48 0
v -96 -48 0
v -96 -32 0
v -80 -32 0
v -96 -48 0
v -112 -48 0
v -112 -32 0
v -96 -32 0
v -112 -48 0
v -128 -48 0
v -128 -32 0
v -112 -32 0
v -128 -48 0
v -144 -48 0
v -144 -32 0
v -128 -32 0
v -144 -48 0
v -160 -48 0
v -160 -32 0
v -144 -32 0
v -160 -48 0
v -176 -48 0
v -176 -32 0
v -160 -32 0
v -176 -48 0
v -192 -48 0
v -192 -32 0
v -176 -32 0
v -192 -48 0
v -208 -48 0
v -208 -32 0
v -192 -32 0
v -208 -48 0
v -224 -48 0
v -224 -32 0
v -208 -32 0
v -224 -48 0
v -240 -48 0
v -240 -32 0
v -224 -32 0
v -16 -64 0
v -32 -64 0
v -32 -48 0
v -16 -48 0
v -32 -64 0
v -48 -64 0
v -48 -48 0
v -32 -48 0
v -48 -64 0
v -64 -64 0
v -64 -48 0
v -48 -48 0
v -64 -64 0
v -80 -64 0
v -80 -48 0
v -64 -48 0
v -80 -64 0
v -96 -64 0
v -96 -48 0
v -80 -48 0
v -96 -64 0
v -112 -64 0
v -112 -48 0
v -96 -48 0
v -112 -64 0
v -128 -64 0
v -128 -48 0
v -112 -48 0
v -128 -64 0
v -144 -64 0
v -144 -48 0
v -128 -48 0
v -144 -64 0
v -160 -64 0
v -160 -48 0
v -144 -48 0
v -160 -64 0
v -176 -64 0
v -176 -48 0
v -160 -48 0
v -176 -64 0
v -192 -64 0
v -192 -48 0
v -176 -48 0
v -192 -64 0
v -208 -64 0
v -208 -48 0
v -192 -48 0
v -208 -64 0
v -224 -64 0
v -224 -48 0
v -208 -48 0
v -224 -64 0
v -240 -64 0
v -240 -48 0
v -224 -48 0
v 0 -80 0
v -16 -80 0
v -16 -64 0
v 0 -64 0
v -16 -80 0
v -32 -80 0
v -32 -64 0
v -16 -64 0
v -32 -80 0
v -48 -80 0
v -48 -64 0
v -32 -64 0
v -48 -80 0
v -64 -80 0
v -64 -64 0
v -48 -64 0
v -64 -80 0
v -80 -80 0
v -80 -64 0
v -64 -64 0
v -80 -80 0
v -96 -80 0
v -96 -64 0
v -80 -64 0
v -96 -80 0
v -112 -80 0
v -112 -64 0
v -96 -64 0
v -112 -80 0
v -128 -80 0
v -128 -64 0
v -112 -64 0
v -128 -80 0
v -144 -80 0
v -144 -64 0
v -128 -64 0
v -144 -80 0
v -160 -80 0
v -160 -64 0
v -144 -64 0
v -160 -80 0
v -176 -80 0
v -176 -64 0
v -160 -64 0
v -176 -80 0
v -192 -80 0
v -192 -64 0
v -176 -64 0
v -192 -80 0
v -208 -80 0
v -208 -64 0
v -192 -64 0
v -208 -80 0
v -224 -80 0
v -224 -64 0
v -208 -64 0
v -224 -80 0
v -240 -80 0
v -240 -64 0
v -224 -64 0
v 0 -96 0
v -16 -96 0
v -16 -80 0
v 0 -80 0
v -16 -96 0
v -32 -96 0
v -32 -80 0
v -16 -80 0
v -32 -96 0
v -48 -96 0
v -48 -80 0
v -32 -80 0
v -48 -96 0
v -64 -96 0
v -64 -80 0
v -48 -80 0
v -64 -96 0
v -80 -96 0
v -80 -80 0
v -64 -80 0
v -80 -96 0
v -96 -96 0
v -96 -80 0
v -80 -80 0
v -96 -96 0
v -112 -96 0
v -112 -80 0
v -96 -80 0
v -112 -96 0
v -128 -96 0
v -128 -80 0
v -112 -80 0
v -128 -96 0
v -144 -96 0
v -144 -80 0
v -128 -80 0
v -144 -96 0
v -160 -96 0
v -160 -80 0
v -144 -80 0
v -160 -96 0
v -176 -96 0
v -176 -80 0
v -160 -80 0
v -176 -96 0
v -192 -96 0
v -192 -80 0
v -176 -80 0
v -192 -96 0
v -208 -96 0
v -208 -80 0
v -192 -80 0
v -208 -96 0
v -224 -96 0
v -224 -80 0
v -208 -80 0
v -224 -96 0
v -240 -96 0
v -240 -80 0
v -224 -80 0
v 0 -112 0
v -16 -112 0
v -16 -96 0
v 0 -96 0
v -16 -112 0
v -32 -112 0
v -32 -96 0
v -16 -96 0
v -32 -112 0
v -48 -112 0
v -48 -96 0
v -32 -96 0
v -48 -112 0
v -64 -112 0
v -64 -96 0
v -48 -96 0
v -64 -112 0
v -80 -112 0
v -80 -96 0
v -64 -96 0
v -80 -112 0
v -96 -112 0
v -96 -96 0
v -80 -96 0
v -96 -112 0
v -112 -112 0
v -112 -96 0
v -96 -96 0
v -112 -112 0
v -128 -112 0
v -128 -96 0
v -112 -96 0
v -128 -112 0
v -144 -112 0
v -144 -96 0
v -128 -96 0
v -144 -112 0
v -160 -112 0
v -160 -96 0
v -144 -96 0
v -160 -112 0
v -176 -112 0
v -176 -96 0
v -160 -96 0
v -176 -112 0
v -192 -112 0
v -192 -96 0
v -176 -96 0
v -192 -112 0
v -208 -112 0
v -208 -96 0
v -192 -96 0
v -208 -112 0
v -224 -112 0
v -224 -96 0
v -208 -96 0
v -224 -112 0
v -240 -112 0
v -240 -96 0
v -224 -96 0
v 0 -128 0
v -16 -128 0
v -16 -112 0
v 0 -112 0
v -16 -128 0
v -32 -128 0
v -32 -112 0
v -16 -112 0
v -32 -128 0
v -48 -128 0
v -48 -112 0
v -32 -112 0
v -48 -128 0
v -64 -128 0
v -64 -112 0
v -48 -112 0
v -64 -128 0
v -80 -128 0
v -80 -112 0
v -64 -112 0
v -80 -128 0
v -96 -128 0
v -96 -112 0
v -80 -112 0
v -96 -128 0
v -112 -128 0
v -112 -112 0
v -96 -112 0
v -112 -128 0
v -128 -128 0
v -128 -112 0
v -112 -112 0
v -128 -128 0
v -144 -128 0
v -144 -112 0
v -128 -112 0
v -144 -128 0
v -160 -128 0
v -160 -112 0
v -144 -112 0
v -160 -128 0
v -176 -128 0
v -176 -112 0
v -160 -112 0
v -176 -128 0
v -192 -128 0
v -192 -112 0
v -176 -112 0
v -192 -128 0
v -208 -128 0
v -208 -112 0
v -192 -112 0
v -208 -128 0
v -224 -128 0
v -224 -112 0
v -208 -112 0
v -224 -128 0
v -240 -128 0
v -240 -112 0
v -224 -112 0
v -16 -144 0
v -32 -144 0
v -32 -128 0
v -16 -128 0
v -32 -144 0
v -48 -144 0
v -48 -128 0
v -32 -128 0
v -48 -144 0
v -64 -144 0
v -64 -128 0
v -48 -128 0
v -64 -144 0
v -80 -144 0
v -80 -128 0
v -64 -128 0
v -80 -144 0
v -96 -144 0
v -96 -128 0
v -80 -128 0
v -96 -144 0
v -112 -144 0
v -112 -128 0
v -96 -128 0
v -112 -144 0
v -128 -144 0
v -128 -128 0
v -112 -128 0
v -128 -144 0
v -144 -144 0
v -144 -128 0
v -128 -128 0
v -144 -144 0
v -160 -144 0
v -160 -128 0
v -144 -128 0
v -160 -144 0
v -176 -144 0
v -176 -128 0
v -160 -128 0
v -176 -144 0
v -192 -144 0
v -192 -128 0
v -176 -128 0
v -192 -144 0
v -208 -144 0
v -208 -128 0
v -192 -128 0
v -208 -144 0
v -224 -144 0
v -224 -128 0
v -208 -128 0
v -224 -144 0
v -240 -144 0
v -240 -128 0
v -224 -128 0
v -16 -160 0
v -32 -160 0
v -32 -144 0
v -16 -144 0
v -32 -160 0
v -48 -160 0
v -48 -144 0
v -32 -144 0
v -48 -160 0
v -64 -160 0
v -64 -144 0
v -48 -144 0
v -64 -160 0
v -80 -160 0
v -80 -144 0
v -64 -144 0
v -80 -160 0
v -96 -160 0
v -96 -144 0
v -80 -144 0
v -96 -160 0
v -112 -160 0
v -112 -144 0
v -96 -144 0
v -144 -160 0
v -160 -160 0
v -160 -144 0
v -144 -144 0
v -160 -160 0
v -176 -160 0
v -176 -144 0
v -160 -144 0
v -176 -160 0
v -192 -160 0
v -192 -144 0
v -176 -144 0
v -192 -160 0
v -208 -160 0
v -208 -144 0
v -192 -144 0
v -16 -176 0
v -32 -176 0
v -32 -160 0
v -16 -160 0
v -32 -176 0
v -48 -176 0
v -48 -160 0
v -32 -160 0
v -48 -176 0
v -64 -176 0
v -64 -160 0
v -48 -160 0
v -64 -176 0
v -80 -176 0
v -80 -160 0
v -64 -160 0
v -144 -176 0
v -160 -176 0
v -160 -160 0
v -144 -160 0
v -160 -176 0
v -176 -176 0
v -176 -160 0
v -160 -160 0
v -224 -176 0
v -240 -176 0
v -240 -160 0
v -224 -160 0
v -240 -176 0
v -256 -176 0
v -256 -160 0
v -240 -160 0
v -16 -192 0
v -32 -192 0
v -32 -176 0
v -16 -176 0
v -32 -192 0
v -48 -192 0
v -48 -176 0
v -32 -176 0
v -96 -192 0
v -112 -192 0
v -112 -176 0
v -96 -176 0
v -112 -192 0
v -128 -192 0
v -128 -176 0
v -112 -176 0
v -192 -192 0
v -208 -192 0
v -208 -176 0
v -192 -176 0
v -224 -192 0
v -240 -192 0
v -240 -176 0
v -224 -176 0
v -240 -192 0
v -256 -192 0
v -256 -176 0
v -240 -176 0
v -64 -208 0
v -80 -208 0
v -80 -192 0
v -64 -192 0
v -80 -208 0
v -96 -208 0
v -96 -192 0
v -80 -192 0
v -96 -208 0
v -112 -208 0
v -112 -192 0
v -96 -192 0
v -112 -208 0
v -128 -208 0
v -128 -192 0
v -112 -192 0
v -144 -208 0
v -160 -208 0
v -160 -192 0
v -144 -192 0
v -160 -208 0
v -176 -208 0
v -176 -192 0
v -160 -192 0
v -176 -208 0
v -192 -208 0
v -192 -192 0
v -176 -192 0
v -192 -208 0
v -208 -208 0
v -208 -192 0
v -192 -192 0
v 0 -224 0
v -16 -224 0
v -16 -208 0
v 0 -208 0
v -16 -224 0
v -32 -224 0
v -32 -208 0
v -16 -208 0
v -32 -224 0
v -48 -224 0
v -48 -208 0
v -32 -208 0
v -64 -224 0
v -80 -224 0
v -80 -208 0
v -64 -208 0
v -80 -224 0
v -96 -224 0
v -96 -208 0
v -80 -208 0
v -96 -224 0
v -112 -224 0
v -112 -208 0
v -96 -208 0
v -112 -224 0
v -128 -224 0
v -128 -208 0
v -112 -208 0
v -224 -224 0
v -240 -224 0
v -240 -208 0
v -224 -208 0
v -240 -224 0
v -256 -224 0
v -256 -208 0
v -240 -208 0
v 0 -240 0
v -16 -240 0
v -16 -224 0
v 0 -224 0
v -16 -240 0
v -32 -240 0
v -32 -224 0
v -16 -224 0
v -32 -240 0
v -48 -240 0
v -48 -224 0
v -32 -224 0
v -64 -240 0
v -80 -240 0
v -80 -224 0
v -64 -224 0
v -80 -240 0
v -96 -240 0
v -96 -224 0
v -80 -224 0
v -96 -240 0
v -112 -240 0
v -112 -224 0
v -96 -224 0
v -112 -240 0
v -128 -240 0
v -128 -224 0
v -112 -224 0
v -128 -240 0
v -144 -240 0
v -144 -224 0
v -128 -224 0
v -144 -240 0
v -160 -240 0
v -160 -224 0
v -144 -224 0
v -160 -240 0
v -176 -240 0
v -176 -224 0
v -160 -224 0
v -176 -240 0
v -192 -240 0
v -192 -224 0
v -176 -224 0
v -192 -240 0
v -208 -240 0
v -208 -224 0
v -192 -224 0
v -224 -240 0
v -240 -240 0
v -240 -224 0
v -224 -224 0
v -240 -240 0
v -256 -240 0
v -256 -224 0
v -240 -224 0

# Texture cooridinates (Count = 27)
vt 0.5714286 0.75
vt 0.7142857 0.75
vt 0.7142857 1
vt 0.5714286 1
vt 0.2857143 0.5
vt 0.4285714 0.5
vt 0.4285714 0.75
vt 0.2857143 0.75
vt 0.1428571 0.75
vt 0.2857143 1
vt 0.1428571 1
vt 0 0.75
vt 0 1
vt 0.1428571 0.5
vt 0 0.5
vt 0.8571429 0.75
vt 1 0.75
vt 1 1
vt 0.8571429 1
vt 0.4285714 1
vt 0.5714286 0.5
vt 0.7142857 0.5
vt 0.2857143 0.25
vt 0.4285714 0.25
vt 0.5714286 0.25
vt 0.7142857 0.25
vt 0.8571429 0.5

# Normal
vn 0 0 -1

# Mesh description
g FlashmanLair_mesh_0001

# Faces
f 1/1/1 2/2/1 3/3/1 4/4/1
f 5/1/1 6/2/1 7/3/1 8/4/1
f 9/1/1 10/2/1 11/3/1 12/4/1
f 13/5/1 14/6/1 15/7/1 16/8/1
f 17/1/1 18/2/1 19/3/1 20/4/1
f 21/1/1 22/2/1 23/3/1 24/4/1
f 25/1/1 26/2/1 27/3/1 28/4/1
f 29/1/1 30/2/1 31/3/1 32/4/1
f 33/5/1 34/6/1 35/7/1 36/8/1
f 37/5/1 38/6/1 39/7/1 40/8/1
f 41/1/1 42/2/1 43/3/1 44/4/1
f 45/1/1 46/2/1 47/3/1 48/4/1
f 49/1/1 50/2/1 51/3/1 52/4/1
f 53/1/1 54/2/1 55/3/1 56/4/1
f 57/1/1 58/2/1 59/3/1 60/4/1
f 61/5/1 62/6/1 63/7/1 64/8/1
f 65/9/1 66/8/1 67/10/1 68/11/1
f 69/12/1 70/9/1 71/11/1 72/13/1
f 73/9/1 74/8/1 75/10/1 76/11/1
f 77/12/1 78/9/1 79/11/1 80/13/1
f 81/9/1 82/8/1 83/10/1 84/11/1
f 85/12/1 86/9/1 87/11/1 88/13/1
f 89/9/1 90/8/1 91/10/1 92/11/1
f 93/12/1 94/9/1 95/11/1 96/13/1
f 97/9/1 98/8/1 99/10/1 100/11/1
f 101/12/1 102/9/1 103/11/1 104/13/1
f 105/9/1 106/8/1 107/10/1 108/11/1
f 109/12/1 110/9/1 111/11/1 112/13/1
f 113/9/1 114/8/1 115/10/1 116/11/1
f 117/12/1 118/9/1 119/11/1 120/13/1
f 121/14/1 122/5/1 123/8/1 124/9/1
f 125/15/1 126/14/1 127/9/1 128/12/1
f 129/14/1 130/5/1 131/8/1 132/9/1
f 133/15/1 134/14/1 135/9/1 136/12/1
f 137/14/1 138/5/1 139/8/1 140/9/1
f 141/15/1 142/14/1 143/9/1 144/12/1
f 145/14/1 146/5/1 147/8/1 148/9/1
f 149/15/1 150/14/1 151/9/1 152/12/1
f 153/14/1 154/5/1 155/8/1 156/9/1
f 157/15/1 158/14/1 159/9/1 160/12/1
f 161/14/1 162/5/1 163/8/1 164/9/1
f 165/15/1 166/14/1 167/9/1 168/12/1
f 169/14/1 170/5/1 171/8/1 172/9/1
f 173/15/1 174/14/1 175/9/1 176/12/1
f 177/16/1 178/17/1 179/18/1 180/19/1
f 181/14/1 182/5/1 183/8/1 184/9/1
f 185/15/1 186/14/1 187/9/1 188/12/1
f 189/14/1 190/5/1 191/8/1 192/9/1
f 193/15/1 194/14/1 195/9/1 196/12/1
f 197/14/1 198/5/1 199/8/1 200/9/1
f 201/15/1 202/14/1 203/9/1 204/12/1
f 205/14/1 206/5/1 207/8/1 208/9/1
f 209/15/1 210/14/1 211/9/1 212/12/1
f 213/14/1 214/5/1 215/8/1 216/9/1
f 217/15/1 218/14/1 219/9/1 220/12/1
f 221/14/1 222/5/1 223/8/1 224/9/1
f 225/15/1 226/14/1 227/9/1 228/12/1
f 229/14/1 230/5/1 231/8/1 232/9/1
f 233/15/1 234/14/1 235/9/1 236/12/1
f 237/16/1 238/17/1 239/18/1 240/19/1
f 241/14/1 242/5/1 243/8/1 244/9/1
f 245/15/1 246/14/1 247/9/1 248/12/1
f 249/14/1 250/5/1 251/8/1 252/9/1
f 253/15/1 254/14/1 255/9/1 256/12/1
f 257/14/1 258/5/1 259/8/1 260/9/1
f 261/15/1 262/14/1 263/9/1 264/12/1
f 265/14/1 266/5/1 267/8/1 268/9/1
f 269/15/1 270/14/1 271/9/1 272/12/1
f 273/14/1 274/5/1 275/8/1 276/9/1
f 277/15/1 278/14/1 279/9/1 280/12/1
f 281/14/1 282/5/1 283/8/1 284/9/1
f 285/15/1 286/14/1 287/9/1 288/12/1
f 289/14/1 290/5/1 291/8/1 292/9/1
f 293/15/1 294/14/1 295/9/1 296/12/1
f 297/16/1 298/17/1 299/18/1 300/19/1
f 301/14/1 302/5/1 303/8/1 304/9/1
f 305/15/1 306/14/1 307/9/1 308/12/1
f 309/14/1 310/5/1 311/8/1 312/9/1
f 313/15/1 314/14/1 315/9/1 316/12/1
f 317/14/1 318/5/1 319/8/1 320/9/1
f 321/15/1 322/14/1 323/9/1 324/12/1
f 325/14/1 326/5/1 327/8/1 328/9/1
f 329/15/1 330/14/1 331/9/1 332/12/1
f 333/14/1 334/5/1 335/8/1 336/9/1
f 337/15/1 338/14/1 339/9/1 340/12/1
f 341/14/1 342/5/1 343/8/1 344/9/1
f 345/15/1 346/14/1 347/9/1 348/12/1
f 349/14/1 350/5/1 351/8/1 352/9/1
f 353/15/1 354/14/1 355/9/1 356/12/1
f 357/16/1 358/17/1 359/18/1 360/19/1
f 361/14/1 362/5/1 363/8/1 364/9/1
f 365/15/1 366/14/1 367/9/1 368/12/1
f 369/14/1 370/5/1 371/8/1 372/9/1
f 373/15/1 374/14/1 375/9/1 376/12/1
f 377/14/1 378/5/1 379/8/1 380/9/1
f 381/15/1 382/14/1 383/9/1 384/12/1
f 385/14/1 386/5/1 387/8/1 388/9/1
f 389/15/1 390/14/1 391/9/1 392/12/1
f 393/14/1 394/5/1 395/8/1 396/9/1
f 397/15/1 398/14/1 399/9/1 400/12/1
f 401/14/1 402/5/1 403/8/1 404/9/1
f 405/15/1 406/14/1 407/9/1 408/12/1
f 409/14/1 410/5/1 411/8/1 412/9/1
f 413/15/1 414/14/1 415/9/1 416/12/1
f 417/14/1 418/5/1 419/8/1 420/9/1
f 421/15/1 422/14/1 423/9/1 424/12/1
f 425/14/1 426/5/1 427/8/1 428/9/1
f 429/15/1 430/14/1 431/9/1 432/12/1
f 433/14/1 434/5/1 435/8/1 436/9/1
f 437/15/1 438/14/1 439/9/1 440/12/1
f 441/14/1 442/5/1 443/8/1 444/9/1
f 445/15/1 446/14/1 447/9/1 448/12/1
f 449/14/1 450/5/1 451/8/1 452/9/1
f 453/15/1 454/14/1 455/9/1 456/12/1
f 457/14/1 458/5/1 459/8/1 460/9/1
f 461/15/1 462/14/1 463/9/1 464/12/1
f 465/14/1 466/5/1 467/8/1 468/9/1
f 469/15/1 470/14/1 471/9/1 472/12/1
f 473/14/1 474/5/1 475/8/1 476/9/1
f 477/15/1 478/14/1 479/9/1 480/12/1
f 481/14/1 482/5/1 483/8/1 484/9/1
f 485/15/1 486/14/1 487/9/1 488/12/1
f 489/14/1 490/5/1 491/8/1 492/9/1
f 493/15/1 494/14/1 495/9/1 496/12/1
f 497/14/1 498/5/1 499/8/1 500/9/1
f 501/15/1 502/14/1 503/9/1 504/12/1
f 505/14/1 506/5/1 507/8/1 508/9/1
f 509/15/1 510/14/1 511/9/1 512/12/1
f 513/14/1 514/5/1 515/8/1 516/9/1
f 517/15/1 518/14/1 519/9/1 520/12/1
f 521/14/1 522/5/1 523/8/1 524/9/1
f 525/15/1 526/14/1 527/9/1 528/12/1
f 529/14/1 530/5/1 531/8/1 532/9/1
f 533/15/1 534/14/1 535/9/1 536/12/1
f 537/7/1 538/1/1 539/4/1 540/20/1
f 541/7/1 542/1/1 543/4/1 544/20/1
f 545/14/1 546/5/1 547/8/1 548/9/1
f 549/15/1 550/14/1 551/9/1 552/12/1
f 553/8/1 554/7/1 555/20/1 556/10/1
f 557/8/1 558/7/1 559/20/1 560/10/1
f 561/7/1 562/1/1 563/4/1 564/20/1
f 565/6/1 566/21/1 567/1/1 568/7/1
f 569/21/1 570/22/1 571/2/1 572/1/1
f 573/7/1 574/1/1 575/4/1 576/20/1
f 577/7/1 578/1/1 579/4/1 580/20/1
f 581/23/1 582/24/1 583/6/1 584/5/1
f 585/23/1 586/24/1 587/6/1 588/5/1
f 589/7/1 590/1/1 591/4/1 592/20/1
f 593/7/1 594/1/1 595/4/1 596/20/1
f 597/7/1 598/1/1 599/4/1 600/20/1
f 601/21/1 602/22/1 603/2/1 604/1/1
f 605/7/1 606/1/1 607/4/1 608/20/1
f 609/8/1 610/7/1 611/20/1 612/10/1
f 613/7/1 614/1/1 615/4/1 616/20/1
f 617/6/1 618/21/1 619/1/1 620/7/1
f 621/21/1 622/22/1 623/2/1 624/1/1
f 625/23/1 626/24/1 627/6/1 628/5/1
f 629/23/1 630/24/1 631/6/1 632/5/1
f 633/7/1 634/1/1 635/4/1 636/20/1
f 637/7/1 638/1/1 639/4/1 640/20/1
f 641/2/1 642/16/1 643/19/1 644/3/1
f 645/23/1 646/24/1 647/6/1 648/5/1
f 649/2/1 650/16/1 651/19/1 652/3/1
f 653/24/1 654/25/1 655/21/1 656/6/1
f 657/25/1 658/26/1 659/22/1 660/21/1
f 661/23/1 662/24/1 663/6/1 664/5/1
f 665/23/1 666/24/1 667/6/1 668/5/1
f 669/7/1 670/1/1 671/4/1 672/20/1
f 673/7/1 674/1/1 675/4/1 676/20/1
f 677/7/1 678/1/1 679/4/1 680/20/1
f 681/7/1 682/1/1 683/4/1 684/20/1
f 685/7/1 686/1/1 687/4/1 688/20/1
f 689/2/1 690/16/1 691/19/1 692/3/1
f 693/22/1 694/27/1 695/16/1 696/2/1

