# Tiled2Unity generated file. Do not modify by hand.
# Wavefront file for 'FlashmanLair_mesh_0002.obj'

# Vertices (Count = 264)
v 0 -32 0
v -16 -32 0
v -16 -16 0
v 0 -16 0
v -16 -32 0
v -32 -32 0
v -32 -16 0
v -16 -16 0
v -32 -32 0
v -48 -32 0
v -48 -16 0
v -32 -16 0
v -48 -32 0
v -64 -32 0
v -64 -16 0
v -48 -16 0
v -64 -32 0
v -80 -32 0
v -80 -16 0
v -64 -16 0
v -80 -32 0
v -96 -32 0
v -96 -16 0
v -80 -16 0
v -96 -32 0
v -112 -32 0
v -112 -16 0
v -96 -16 0
v -112 -32 0
v -128 -32 0
v -128 -16 0
v -112 -16 0
v -128 -32 0
v -144 -32 0
v -144 -16 0
v -128 -16 0
v -144 -32 0
v -160 -32 0
v -160 -16 0
v -144 -16 0
v -160 -32 0
v -176 -32 0
v -176 -16 0
v -160 -16 0
v -176 -32 0
v -192 -32 0
v -192 -16 0
v -176 -16 0
v -192 -32 0
v -208 -32 0
v -208 -16 0
v -192 -16 0
v -208 -32 0
v -224 -32 0
v -224 -16 0
v -208 -16 0
v -224 -32 0
v -240 -32 0
v -240 -16 0
v -224 -16 0
v -240 -32 0
v -256 -32 0
v -256 -16 0
v -240 -16 0
v 0 -48 0
v -16 -48 0
v -16 -32 0
v 0 -32 0
v -240 -48 0
v -256 -48 0
v -256 -32 0
v -240 -32 0
v 0 -64 0
v -16 -64 0
v -16 -48 0
v 0 -48 0
v -240 -64 0
v -256 -64 0
v -256 -48 0
v -240 -48 0
v -240 -80 0
v -256 -80 0
v -256 -64 0
v -240 -64 0
v -240 -96 0
v -256 -96 0
v -256 -80 0
v -240 -80 0
v -240 -112 0
v -256 -112 0
v -256 -96 0
v -240 -96 0
v -240 -128 0
v -256 -128 0
v -256 -112 0
v -240 -112 0
v 0 -144 0
v -16 -144 0
v -16 -128 0
v 0 -128 0
v -240 -144 0
v -256 -144 0
v -256 -128 0
v -240 -128 0
v 0 -160 0
v -16 -160 0
v -16 -144 0
v 0 -144 0
v -112 -160 0
v -128 -160 0
v -128 -144 0
v -112 -144 0
v -128 -160 0
v -144 -160 0
v -144 -144 0
v -128 -144 0
v -208 -160 0
v -224 -160 0
v -224 -144 0
v -208 -144 0
v -224 -160 0
v -240 -160 0
v -240 -144 0
v -224 -144 0
v -240 -160 0
v -256 -160 0
v -256 -144 0
v -240 -144 0
v 0 -176 0
v -16 -176 0
v -16 -160 0
v 0 -160 0
v -80 -176 0
v -96 -176 0
v -96 -160 0
v -80 -160 0
v -96 -176 0
v -112 -176 0
v -112 -160 0
v -96 -160 0
v -112 -176 0
v -128 -176 0
v -128 -160 0
v -112 -160 0
v -128 -176 0
v -144 -176 0
v -144 -160 0
v -128 -160 0
v -176 -176 0
v -192 -176 0
v -192 -160 0
v -176 -160 0
v -192 -176 0
v -208 -176 0
v -208 -160 0
v -192 -160 0
v -208 -176 0
v -224 -176 0
v -224 -160 0
v -208 -160 0
v 0 -192 0
v -16 -192 0
v -16 -176 0
v 0 -176 0
v -48 -192 0
v -64 -192 0
v -64 -176 0
v -48 -176 0
v -64 -192 0
v -80 -192 0
v -80 -176 0
v -64 -176 0
v -80 -192 0
v -96 -192 0
v -96 -176 0
v -80 -176 0
v -128 -192 0
v -144 -192 0
v -144 -176 0
v -128 -176 0
v -144 -192 0
v -160 -192 0
v -160 -176 0
v -144 -176 0
v -160 -192 0
v -176 -192 0
v -176 -176 0
v -160 -176 0
v -176 -192 0
v -192 -192 0
v -192 -176 0
v -176 -176 0
v -208 -192 0
v -224 -192 0
v -224 -176 0
v -208 -176 0
v 0 -208 0
v -16 -208 0
v -16 -192 0
v 0 -192 0
v -16 -208 0
v -32 -208 0
v -32 -192 0
v -16 -192 0
v -32 -208 0
v -48 -208 0
v -48 -192 0
v -32 -192 0
v -48 -208 0
v -64 -208 0
v -64 -192 0
v -48 -192 0
v -128 -208 0
v -144 -208 0
v -144 -192 0
v -128 -192 0
v -208 -208 0
v -224 -208 0
v -224 -192 0
v -208 -192 0
v -224 -208 0
v -240 -208 0
v -240 -192 0
v -224 -192 0
v -240 -208 0
v -256 -208 0
v -256 -192 0
v -240 -192 0
v -48 -224 0
v -64 -224 0
v -64 -208 0
v -48 -208 0
v -128 -224 0
v -144 -224 0
v -144 -208 0
v -128 -208 0
v -144 -224 0
v -160 -224 0
v -160 -208 0
v -144 -208 0
v -160 -224 0
v -176 -224 0
v -176 -208 0
v -160 -208 0
v -176 -224 0
v -192 -224 0
v -192 -208 0
v -176 -208 0
v -192 -224 0
v -208 -224 0
v -208 -208 0
v -192 -208 0
v -208 -224 0
v -224 -224 0
v -224 -208 0
v -208 -208 0
v -48 -240 0
v -64 -240 0
v -64 -224 0
v -48 -224 0
v -208 -240 0
v -224 -240 0
v -224 -224 0
v -208 -224 0

# Texture cooridinates (Count = 24)
vt 0.1428571 0.3333333
vt 0.2857143 0.3333333
vt 0.2857143 0.6666666
vt 0.1428571 0.6666666
vt 0.4285714 0.3333333
vt 0.4285714 0.6666666
vt 0.5714286 0.3333333
vt 0.5714286 0.6666666
vt 0 0.6666666
vt 0.1428571 1
vt 0 1
vt 0.2857143 1
vt 0.4285714 1
vt 0.5714286 1
vt 0.7142857 0.6666666
vt 0.7142857 1
vt 0.5714286 0
vt 0.7142857 0
vt 0.7142857 0.3333333
vt 0.8571429 0.6666666
vt 0.8571429 1
vt 0.8571429 0.3333333
vt 0.8571429 0
vt 0 0.3333333

# Normal
vn 0 0 -1

# Mesh description
g FlashmanLair_mesh_0002

# Faces
f 1/1/1 2/2/1 3/3/1 4/4/1
f 5/2/1 6/5/1 7/6/1 8/3/1
f 9/5/1 10/7/1 11/8/1 12/6/1
f 13/9/1 14/4/1 15/10/1 16/11/1
f 17/9/1 18/4/1 19/10/1 20/11/1
f 21/4/1 22/3/1 23/12/1 24/10/1
f 25/3/1 26/6/1 27/13/1 28/12/1
f 29/6/1 30/8/1 31/14/1 32/13/1
f 33/1/1 34/2/1 35/3/1 36/4/1
f 37/5/1 38/7/1 39/8/1 40/6/1
f 41/9/1 42/4/1 43/10/1 44/11/1
f 45/9/1 46/4/1 47/10/1 48/11/1
f 49/1/1 50/2/1 51/3/1 52/4/1
f 53/2/1 54/5/1 55/6/1 56/3/1
f 57/5/1 58/7/1 59/8/1 60/6/1
f 61/9/1 62/4/1 63/10/1 64/11/1
f 65/8/1 66/15/1 67/16/1 68/14/1
f 69/8/1 70/15/1 71/16/1 72/14/1
f 73/17/1 74/18/1 75/19/1 76/7/1
f 77/17/1 78/18/1 79/19/1 80/7/1
f 81/15/1 82/20/1 83/21/1 84/16/1
f 85/19/1 86/22/1 87/20/1 88/15/1
f 89/18/1 90/23/1 91/22/1 92/19/1
f 93/9/1 94/4/1 95/10/1 96/11/1
f 97/9/1 98/4/1 99/10/1 100/11/1
f 101/9/1 102/4/1 103/10/1 104/11/1
f 105/15/1 106/20/1 107/21/1 108/16/1
f 109/1/1 110/2/1 111/3/1 112/4/1
f 113/5/1 114/7/1 115/8/1 116/6/1
f 117/1/1 118/2/1 119/3/1 120/4/1
f 121/2/1 122/5/1 123/6/1 124/3/1
f 125/5/1 126/7/1 127/8/1 128/6/1
f 129/18/1 130/23/1 131/22/1 132/19/1
f 133/4/1 134/3/1 135/12/1 136/10/1
f 137/6/1 138/8/1 139/14/1 140/13/1
f 141/9/1 142/4/1 143/10/1 144/11/1
f 145/8/1 146/15/1 147/16/1 148/14/1
f 149/4/1 150/3/1 151/12/1 152/10/1
f 153/6/1 154/8/1 155/14/1 156/13/1
f 157/8/1 158/15/1 159/16/1 160/14/1
f 161/9/1 162/4/1 163/10/1 164/11/1
f 165/4/1 166/3/1 167/12/1 168/10/1
f 169/6/1 170/8/1 171/14/1 172/13/1
f 173/24/1 174/1/1 175/4/1 176/9/1
f 177/7/1 178/19/1 179/15/1 180/8/1
f 181/4/1 182/3/1 183/12/1 184/10/1
f 185/6/1 186/8/1 187/14/1 188/13/1
f 189/24/1 190/1/1 191/4/1 192/9/1
f 193/17/1 194/18/1 195/19/1 196/7/1
f 197/4/1 198/3/1 199/12/1 200/10/1
f 201/6/1 202/8/1 203/14/1 204/13/1
f 205/24/1 206/1/1 207/4/1 208/9/1
f 209/8/1 210/15/1 211/16/1 212/14/1
f 213/7/1 214/19/1 215/15/1 216/8/1
f 217/8/1 218/15/1 219/16/1 220/14/1
f 221/1/1 222/2/1 223/3/1 224/4/1
f 225/2/1 226/5/1 227/6/1 228/3/1
f 229/17/1 230/18/1 231/19/1 232/7/1
f 233/17/1 234/18/1 235/19/1 236/7/1
f 237/1/1 238/2/1 239/3/1 240/4/1
f 241/2/1 242/5/1 243/6/1 244/3/1
f 245/2/1 246/5/1 247/6/1 248/3/1
f 249/5/1 250/7/1 251/8/1 252/6/1
f 253/7/1 254/19/1 255/15/1 256/8/1
f 257/15/1 258/20/1 259/21/1 260/16/1
f 261/7/1 262/19/1 263/15/1 264/8/1

