# Tiled2Unity generated file. Do not modify by hand.
# Wavefront file for 'FlashmanLair_mesh_0004.obj'

# Vertices (Count = 264)
v 0 -32 0
v -16 -32 0
v -16 -16 0
v 0 -16 0
v -16 -32 0
v -32 -32 0
v -32 -16 0
v -16 -16 0
v -32 -32 0
v -48 -32 0
v -48 -16 0
v -32 -16 0
v -48 -32 0
v -64 -32 0
v -64 -16 0
v -48 -16 0
v -64 -32 0
v -80 -32 0
v -80 -16 0
v -64 -16 0
v -80 -32 0
v -96 -32 0
v -96 -16 0
v -80 -16 0
v -96 -32 0
v -112 -32 0
v -112 -16 0
v -96 -16 0
v -112 -32 0
v -128 -32 0
v -128 -16 0
v -112 -16 0
v -128 -32 0
v -144 -32 0
v -144 -16 0
v -128 -16 0
v -144 -32 0
v -160 -32 0
v -160 -16 0
v -144 -16 0
v -160 -32 0
v -176 -32 0
v -176 -16 0
v -160 -16 0
v -176 -32 0
v -192 -32 0
v -192 -16 0
v -176 -16 0
v -192 -32 0
v -208 -32 0
v -208 -16 0
v -192 -16 0
v -208 -32 0
v -224 -32 0
v -224 -16 0
v -208 -16 0
v -224 -32 0
v -240 -32 0
v -240 -16 0
v -224 -16 0
v -240 -32 0
v -256 -32 0
v -256 -16 0
v -240 -16 0
v 0 -48 0
v -16 -48 0
v -16 -32 0
v 0 -32 0
v -240 -48 0
v -256 -48 0
v -256 -32 0
v -240 -32 0
v 0 -64 0
v -16 -64 0
v -16 -48 0
v 0 -48 0
v -240 -64 0
v -256 -64 0
v -256 -48 0
v -240 -48 0
v -240 -80 0
v -256 -80 0
v -256 -64 0
v -240 -64 0
v -240 -96 0
v -256 -96 0
v -256 -80 0
v -240 -80 0
v -240 -112 0
v -256 -112 0
v -256 -96 0
v -240 -96 0
v -240 -128 0
v -256 -128 0
v -256 -112 0
v -240 -112 0
v 0 -144 0
v -16 -144 0
v -16 -128 0
v 0 -128 0
v -240 -144 0
v -256 -144 0
v -256 -128 0
v -240 -128 0
v 0 -160 0
v -16 -160 0
v -16 -144 0
v 0 -144 0
v -112 -160 0
v -128 -160 0
v -128 -144 0
v -112 -144 0
v -128 -160 0
v -144 -160 0
v -144 -144 0
v -128 -144 0
v -208 -160 0
v -224 -160 0
v -224 -144 0
v -208 -144 0
v -224 -160 0
v -240 -160 0
v -240 -144 0
v -224 -144 0
v -240 -160 0
v -256 -160 0
v -256 -144 0
v -240 -144 0
v 0 -176 0
v -16 -176 0
v -16 -160 0
v 0 -160 0
v -80 -176 0
v -96 -176 0
v -96 -160 0
v -80 -160 0
v -96 -176 0
v -112 -176 0
v -112 -160 0
v -96 -160 0
v -112 -176 0
v -128 -176 0
v -128 -160 0
v -112 -160 0
v -128 -176 0
v -144 -176 0
v -144 -160 0
v -128 -160 0
v -176 -176 0
v -192 -176 0
v -192 -160 0
v -176 -160 0
v -192 -176 0
v -208 -176 0
v -208 -160 0
v -192 -160 0
v -208 -176 0
v -224 -176 0
v -224 -160 0
v -208 -160 0
v 0 -192 0
v -16 -192 0
v -16 -176 0
v 0 -176 0
v -48 -192 0
v -64 -192 0
v -64 -176 0
v -48 -176 0
v -64 -192 0
v -80 -192 0
v -80 -176 0
v -64 -176 0
v -80 -192 0
v -96 -192 0
v -96 -176 0
v -80 -176 0
v -128 -192 0
v -144 -192 0
v -144 -176 0
v -128 -176 0
v -144 -192 0
v -160 -192 0
v -160 -176 0
v -144 -176 0
v -160 -192 0
v -176 -192 0
v -176 -176 0
v -160 -176 0
v -176 -192 0
v -192 -192 0
v -192 -176 0
v -176 -176 0
v -208 -192 0
v -224 -192 0
v -224 -176 0
v -208 -176 0
v 0 -208 0
v -16 -208 0
v -16 -192 0
v 0 -192 0
v -16 -208 0
v -32 -208 0
v -32 -192 0
v -16 -192 0
v -32 -208 0
v -48 -208 0
v -48 -192 0
v -32 -192 0
v -48 -208 0
v -64 -208 0
v -64 -192 0
v -48 -192 0
v -128 -208 0
v -144 -208 0
v -144 -192 0
v -128 -192 0
v -208 -208 0
v -224 -208 0
v -224 -192 0
v -208 -192 0
v -224 -208 0
v -240 -208 0
v -240 -192 0
v -224 -192 0
v -240 -208 0
v -256 -208 0
v -256 -192 0
v -240 -192 0
v -48 -224 0
v -64 -224 0
v -64 -208 0
v -48 -208 0
v -128 -224 0
v -144 -224 0
v -144 -208 0
v -128 -208 0
v -144 -224 0
v -160 -224 0
v -160 -208 0
v -144 -208 0
v -160 -224 0
v -176 -224 0
v -176 -208 0
v -160 -208 0
v -176 -224 0
v -192 -224 0
v -192 -208 0
v -176 -208 0
v -192 -224 0
v -208 -224 0
v -208 -208 0
v -192 -208 0
v -208 -224 0
v -224 -224 0
v -224 -208 0
v -208 -208 0
v -48 -240 0
v -64 -240 0
v -64 -224 0
v -48 -224 0
v -208 -240 0
v -224 -240 0
v -224 -224 0
v -208 -224 0

# Texture cooridinates (Count = 24)
vt 0.1428571 0.6666666
vt 0.2857143 0.6666666
vt 0.2857143 1
vt 0.1428571 1
vt 0.4285714 0.6666666
vt 0.4285714 1
vt 0.5714286 0.6666666
vt 0.5714286 1
vt 0 0.6666666
vt 0 1
vt 0.1428571 0.3333333
vt 0.2857143 0.3333333
vt 0.4285714 0.3333333
vt 0.5714286 0.3333333
vt 0 0.3333333
vt 0.7142857 0.6666666
vt 0.8571429 0.6666666
vt 0.8571429 1
vt 0.7142857 1
vt 0.7142857 0
vt 0.8571429 0
vt 0.8571429 0.3333333
vt 0.7142857 0.3333333
vt 0.5714286 0

# Normal
vn 0 0 -1

# Mesh description
g FlashmanLair_mesh_0004

# Faces
f 1/1/1 2/2/1 3/3/1 4/4/1
f 5/2/1 6/5/1 7/6/1 8/3/1
f 9/5/1 10/7/1 11/8/1 12/6/1
f 13/9/1 14/1/1 15/4/1 16/10/1
f 17/9/1 18/1/1 19/4/1 20/10/1
f 21/11/1 22/12/1 23/2/1 24/1/1
f 25/12/1 26/13/1 27/5/1 28/2/1
f 29/13/1 30/14/1 31/7/1 32/5/1
f 33/1/1 34/2/1 35/3/1 36/4/1
f 37/5/1 38/7/1 39/8/1 40/6/1
f 41/9/1 42/1/1 43/4/1 44/10/1
f 45/15/1 46/11/1 47/1/1 48/9/1
f 49/1/1 50/2/1 51/3/1 52/4/1
f 53/2/1 54/5/1 55/6/1 56/3/1
f 57/5/1 58/7/1 59/8/1 60/6/1
f 61/9/1 62/1/1 63/4/1 64/10/1
f 65/16/1 66/17/1 67/18/1 68/19/1
f 69/16/1 70/17/1 71/18/1 72/19/1
f 73/20/1 74/21/1 75/22/1 76/23/1
f 77/20/1 78/21/1 79/22/1 80/23/1
f 81/7/1 82/16/1 83/19/1 84/8/1
f 85/14/1 86/23/1 87/16/1 88/7/1
f 89/24/1 90/20/1 91/23/1 92/14/1
f 93/9/1 94/1/1 95/4/1 96/10/1
f 97/9/1 98/1/1 99/4/1 100/10/1
f 101/15/1 102/11/1 103/1/1 104/9/1
f 105/7/1 106/16/1 107/19/1 108/8/1
f 109/1/1 110/2/1 111/3/1 112/4/1
f 113/5/1 114/7/1 115/8/1 116/6/1
f 117/1/1 118/2/1 119/3/1 120/4/1
f 121/2/1 122/5/1 123/6/1 124/3/1
f 125/5/1 126/7/1 127/8/1 128/6/1
f 129/24/1 130/20/1 131/23/1 132/14/1
f 133/11/1 134/12/1 135/2/1 136/1/1
f 137/13/1 138/14/1 139/7/1 140/5/1
f 141/9/1 142/1/1 143/4/1 144/10/1
f 145/16/1 146/17/1 147/18/1 148/19/1
f 149/11/1 150/12/1 151/2/1 152/1/1
f 153/13/1 154/14/1 155/7/1 156/5/1
f 157/7/1 158/16/1 159/19/1 160/8/1
f 161/15/1 162/11/1 163/1/1 164/9/1
f 165/1/1 166/2/1 167/3/1 168/4/1
f 169/5/1 170/7/1 171/8/1 172/6/1
f 173/9/1 174/1/1 175/4/1 176/10/1
f 177/23/1 178/22/1 179/17/1 180/16/1
f 181/1/1 182/2/1 183/3/1 184/4/1
f 185/5/1 186/7/1 187/8/1 188/6/1
f 189/9/1 190/1/1 191/4/1 192/10/1
f 193/24/1 194/20/1 195/23/1 196/14/1
f 197/1/1 198/2/1 199/3/1 200/4/1
f 201/5/1 202/7/1 203/8/1 204/6/1
f 205/9/1 206/1/1 207/4/1 208/10/1
f 209/16/1 210/17/1 211/18/1 212/19/1
f 213/23/1 214/22/1 215/17/1 216/16/1
f 217/16/1 218/17/1 219/18/1 220/19/1
f 221/1/1 222/2/1 223/3/1 224/4/1
f 225/2/1 226/5/1 227/6/1 228/3/1
f 229/20/1 230/21/1 231/22/1 232/23/1
f 233/20/1 234/21/1 235/22/1 236/23/1
f 237/1/1 238/2/1 239/3/1 240/4/1
f 241/2/1 242/5/1 243/6/1 244/3/1
f 245/2/1 246/5/1 247/6/1 248/3/1
f 249/5/1 250/7/1 251/8/1 252/6/1
f 253/23/1 254/22/1 255/17/1 256/16/1
f 257/7/1 258/16/1 259/19/1 260/8/1
f 261/23/1 262/22/1 263/17/1 264/16/1

