# Tiled2Unity generated file. Do not modify by hand.
# Wavefront file for 'Cutman-ObjectTypes_mesh_0001.obj'

# Vertices (Count = 960)
v 0 -16 0
v -16 -16 0
v -16 0 0
v 0 0 0
v -16 -16 0
v -32 -16 0
v -32 0 0
v -16 0 0
v -32 -16 0
v -48 -16 0
v -48 0 0
v -32 0 0
v -48 -16 0
v -64 -16 0
v -64 0 0
v -48 0 0
v -64 -16 0
v -80 -16 0
v -80 0 0
v -64 0 0
v -80 -16 0
v -96 -16 0
v -96 0 0
v -80 0 0
v -96 -16 0
v -112 -16 0
v -112 0 0
v -96 0 0
v -112 -16 0
v -128 -16 0
v -128 0 0
v -112 0 0
v -128 -16 0
v -144 -16 0
v -144 0 0
v -128 0 0
v -144 -16 0
v -160 -16 0
v -160 0 0
v -144 0 0
v -160 -16 0
v -176 -16 0
v -176 0 0
v -160 0 0
v -176 -16 0
v -192 -16 0
v -192 0 0
v -176 0 0
v -192 -16 0
v -208 -16 0
v -208 0 0
v -192 0 0
v -208 -16 0
v -224 -16 0
v -224 0 0
v -208 0 0
v -224 -16 0
v -240 -16 0
v -240 0 0
v -224 0 0
v -240 -16 0
v -256 -16 0
v -256 0 0
v -240 0 0
v 0 -32 0
v -16 -32 0
v -16 -16 0
v 0 -16 0
v -16 -32 0
v -32 -32 0
v -32 -16 0
v -16 -16 0
v -32 -32 0
v -48 -32 0
v -48 -16 0
v -32 -16 0
v -48 -32 0
v -64 -32 0
v -64 -16 0
v -48 -16 0
v -64 -32 0
v -80 -32 0
v -80 -16 0
v -64 -16 0
v -80 -32 0
v -96 -32 0
v -96 -16 0
v -80 -16 0
v -96 -32 0
v -112 -32 0
v -112 -16 0
v -96 -16 0
v -112 -32 0
v -128 -32 0
v -128 -16 0
v -112 -16 0
v -128 -32 0
v -144 -32 0
v -144 -16 0
v -128 -16 0
v -144 -32 0
v -160 -32 0
v -160 -16 0
v -144 -16 0
v -160 -32 0
v -176 -32 0
v -176 -16 0
v -160 -16 0
v -176 -32 0
v -192 -32 0
v -192 -16 0
v -176 -16 0
v -192 -32 0
v -208 -32 0
v -208 -16 0
v -192 -16 0
v -208 -32 0
v -224 -32 0
v -224 -16 0
v -208 -16 0
v -224 -32 0
v -240 -32 0
v -240 -16 0
v -224 -16 0
v -240 -32 0
v -256 -32 0
v -256 -16 0
v -240 -16 0
v 0 -48 0
v -16 -48 0
v -16 -32 0
v 0 -32 0
v -16 -48 0
v -32 -48 0
v -32 -32 0
v -16 -32 0
v -32 -48 0
v -48 -48 0
v -48 -32 0
v -32 -32 0
v -48 -48 0
v -64 -48 0
v -64 -32 0
v -48 -32 0
v -64 -48 0
v -80 -48 0
v -80 -32 0
v -64 -32 0
v -80 -48 0
v -96 -48 0
v -96 -32 0
v -80 -32 0
v -96 -48 0
v -112 -48 0
v -112 -32 0
v -96 -32 0
v -112 -48 0
v -128 -48 0
v -128 -32 0
v -112 -32 0
v -128 -48 0
v -144 -48 0
v -144 -32 0
v -128 -32 0
v -144 -48 0
v -160 -48 0
v -160 -32 0
v -144 -32 0
v -160 -48 0
v -176 -48 0
v -176 -32 0
v -160 -32 0
v -176 -48 0
v -192 -48 0
v -192 -32 0
v -176 -32 0
v -192 -48 0
v -208 -48 0
v -208 -32 0
v -192 -32 0
v -208 -48 0
v -224 -48 0
v -224 -32 0
v -208 -32 0
v -224 -48 0
v -240 -48 0
v -240 -32 0
v -224 -32 0
v -240 -48 0
v -256 -48 0
v -256 -32 0
v -240 -32 0
v 0 -64 0
v -16 -64 0
v -16 -48 0
v 0 -48 0
v -16 -64 0
v -32 -64 0
v -32 -48 0
v -16 -48 0
v -32 -64 0
v -48 -64 0
v -48 -48 0
v -32 -48 0
v -48 -64 0
v -64 -64 0
v -64 -48 0
v -48 -48 0
v -64 -64 0
v -80 -64 0
v -80 -48 0
v -64 -48 0
v -80 -64 0
v -96 -64 0
v -96 -48 0
v -80 -48 0
v -96 -64 0
v -112 -64 0
v -112 -48 0
v -96 -48 0
v -112 -64 0
v -128 -64 0
v -128 -48 0
v -112 -48 0
v -128 -64 0
v -144 -64 0
v -144 -48 0
v -128 -48 0
v -144 -64 0
v -160 -64 0
v -160 -48 0
v -144 -48 0
v -160 -64 0
v -176 -64 0
v -176 -48 0
v -160 -48 0
v -176 -64 0
v -192 -64 0
v -192 -48 0
v -176 -48 0
v -192 -64 0
v -208 -64 0
v -208 -48 0
v -192 -48 0
v -208 -64 0
v -224 -64 0
v -224 -48 0
v -208 -48 0
v -224 -64 0
v -240 -64 0
v -240 -48 0
v -224 -48 0
v -240 -64 0
v -256 -64 0
v -256 -48 0
v -240 -48 0
v 0 -80 0
v -16 -80 0
v -16 -64 0
v 0 -64 0
v -16 -80 0
v -32 -80 0
v -32 -64 0
v -16 -64 0
v -32 -80 0
v -48 -80 0
v -48 -64 0
v -32 -64 0
v -48 -80 0
v -64 -80 0
v -64 -64 0
v -48 -64 0
v -64 -80 0
v -80 -80 0
v -80 -64 0
v -64 -64 0
v -80 -80 0
v -96 -80 0
v -96 -64 0
v -80 -64 0
v -96 -80 0
v -112 -80 0
v -112 -64 0
v -96 -64 0
v -112 -80 0
v -128 -80 0
v -128 -64 0
v -112 -64 0
v -128 -80 0
v -144 -80 0
v -144 -64 0
v -128 -64 0
v -144 -80 0
v -160 -80 0
v -160 -64 0
v -144 -64 0
v -160 -80 0
v -176 -80 0
v -176 -64 0
v -160 -64 0
v -176 -80 0
v -192 -80 0
v -192 -64 0
v -176 -64 0
v -192 -80 0
v -208 -80 0
v -208 -64 0
v -192 -64 0
v -208 -80 0
v -224 -80 0
v -224 -64 0
v -208 -64 0
v -224 -80 0
v -240 -80 0
v -240 -64 0
v -224 -64 0
v -240 -80 0
v -256 -80 0
v -256 -64 0
v -240 -64 0
v 0 -96 0
v -16 -96 0
v -16 -80 0
v 0 -80 0
v -16 -96 0
v -32 -96 0
v -32 -80 0
v -16 -80 0
v -32 -96 0
v -48 -96 0
v -48 -80 0
v -32 -80 0
v -48 -96 0
v -64 -96 0
v -64 -80 0
v -48 -80 0
v -64 -96 0
v -80 -96 0
v -80 -80 0
v -64 -80 0
v -80 -96 0
v -96 -96 0
v -96 -80 0
v -80 -80 0
v -96 -96 0
v -112 -96 0
v -112 -80 0
v -96 -80 0
v -112 -96 0
v -128 -96 0
v -128 -80 0
v -112 -80 0
v -128 -96 0
v -144 -96 0
v -144 -80 0
v -128 -80 0
v -144 -96 0
v -160 -96 0
v -160 -80 0
v -144 -80 0
v -160 -96 0
v -176 -96 0
v -176 -80 0
v -160 -80 0
v -176 -96 0
v -192 -96 0
v -192 -80 0
v -176 -80 0
v -192 -96 0
v -208 -96 0
v -208 -80 0
v -192 -80 0
v -208 -96 0
v -224 -96 0
v -224 -80 0
v -208 -80 0
v -224 -96 0
v -240 -96 0
v -240 -80 0
v -224 -80 0
v -240 -96 0
v -256 -96 0
v -256 -80 0
v -240 -80 0
v 0 -112 0
v -16 -112 0
v -16 -96 0
v 0 -96 0
v -16 -112 0
v -32 -112 0
v -32 -96 0
v -16 -96 0
v -32 -112 0
v -48 -112 0
v -48 -96 0
v -32 -96 0
v -48 -112 0
v -64 -112 0
v -64 -96 0
v -48 -96 0
v -64 -112 0
v -80 -112 0
v -80 -96 0
v -64 -96 0
v -80 -112 0
v -96 -112 0
v -96 -96 0
v -80 -96 0
v -96 -112 0
v -112 -112 0
v -112 -96 0
v -96 -96 0
v -112 -112 0
v -128 -112 0
v -128 -96 0
v -112 -96 0
v -128 -112 0
v -144 -112 0
v -144 -96 0
v -128 -96 0
v -144 -112 0
v -160 -112 0
v -160 -96 0
v -144 -96 0
v -160 -112 0
v -176 -112 0
v -176 -96 0
v -160 -96 0
v -176 -112 0
v -192 -112 0
v -192 -96 0
v -176 -96 0
v -192 -112 0
v -208 -112 0
v -208 -96 0
v -192 -96 0
v -208 -112 0
v -224 -112 0
v -224 -96 0
v -208 -96 0
v -224 -112 0
v -240 -112 0
v -240 -96 0
v -224 -96 0
v -240 -112 0
v -256 -112 0
v -256 -96 0
v -240 -96 0
v 0 -128 0
v -16 -128 0
v -16 -112 0
v 0 -112 0
v -16 -128 0
v -32 -128 0
v -32 -112 0
v -16 -112 0
v -32 -128 0
v -48 -128 0
v -48 -112 0
v -32 -112 0
v -48 -128 0
v -64 -128 0
v -64 -112 0
v -48 -112 0
v -64 -128 0
v -80 -128 0
v -80 -112 0
v -64 -112 0
v -80 -128 0
v -96 -128 0
v -96 -112 0
v -80 -112 0
v -96 -128 0
v -112 -128 0
v -112 -112 0
v -96 -112 0
v -112 -128 0
v -128 -128 0
v -128 -112 0
v -112 -112 0
v -128 -128 0
v -144 -128 0
v -144 -112 0
v -128 -112 0
v -144 -128 0
v -160 -128 0
v -160 -112 0
v -144 -112 0
v -160 -128 0
v -176 -128 0
v -176 -112 0
v -160 -112 0
v -176 -128 0
v -192 -128 0
v -192 -112 0
v -176 -112 0
v -192 -128 0
v -208 -128 0
v -208 -112 0
v -192 -112 0
v -208 -128 0
v -224 -128 0
v -224 -112 0
v -208 -112 0
v -224 -128 0
v -240 -128 0
v -240 -112 0
v -224 -112 0
v -240 -128 0
v -256 -128 0
v -256 -112 0
v -240 -112 0
v 0 -144 0
v -16 -144 0
v -16 -128 0
v 0 -128 0
v -16 -144 0
v -32 -144 0
v -32 -128 0
v -16 -128 0
v -32 -144 0
v -48 -144 0
v -48 -128 0
v -32 -128 0
v -48 -144 0
v -64 -144 0
v -64 -128 0
v -48 -128 0
v -64 -144 0
v -80 -144 0
v -80 -128 0
v -64 -128 0
v -80 -144 0
v -96 -144 0
v -96 -128 0
v -80 -128 0
v -96 -144 0
v -112 -144 0
v -112 -128 0
v -96 -128 0
v -112 -144 0
v -128 -144 0
v -128 -128 0
v -112 -128 0
v -128 -144 0
v -144 -144 0
v -144 -128 0
v -128 -128 0
v -144 -144 0
v -160 -144 0
v -160 -128 0
v -144 -128 0
v -160 -144 0
v -176 -144 0
v -176 -128 0
v -160 -128 0
v -176 -144 0
v -192 -144 0
v -192 -128 0
v -176 -128 0
v -192 -144 0
v -208 -144 0
v -208 -128 0
v -192 -128 0
v -208 -144 0
v -224 -144 0
v -224 -128 0
v -208 -128 0
v -224 -144 0
v -240 -144 0
v -240 -128 0
v -224 -128 0
v -240 -144 0
v -256 -144 0
v -256 -128 0
v -240 -128 0
v 0 -160 0
v -16 -160 0
v -16 -144 0
v 0 -144 0
v -16 -160 0
v -32 -160 0
v -32 -144 0
v -16 -144 0
v -32 -160 0
v -48 -160 0
v -48 -144 0
v -32 -144 0
v -48 -160 0
v -64 -160 0
v -64 -144 0
v -48 -144 0
v -64 -160 0
v -80 -160 0
v -80 -144 0
v -64 -144 0
v -80 -160 0
v -96 -160 0
v -96 -144 0
v -80 -144 0
v -96 -160 0
v -112 -160 0
v -112 -144 0
v -96 -144 0
v -112 -160 0
v -128 -160 0
v -128 -144 0
v -112 -144 0
v -128 -160 0
v -144 -160 0
v -144 -144 0
v -128 -144 0
v -144 -160 0
v -160 -160 0
v -160 -144 0
v -144 -144 0
v -160 -160 0
v -176 -160 0
v -176 -144 0
v -160 -144 0
v -176 -160 0
v -192 -160 0
v -192 -144 0
v -176 -144 0
v -192 -160 0
v -208 -160 0
v -208 -144 0
v -192 -144 0
v -208 -160 0
v -224 -160 0
v -224 -144 0
v -208 -144 0
v -224 -160 0
v -240 -160 0
v -240 -144 0
v -224 -144 0
v -240 -160 0
v -256 -160 0
v -256 -144 0
v -240 -144 0
v 0 -176 0
v -16 -176 0
v -16 -160 0
v 0 -160 0
v -16 -176 0
v -32 -176 0
v -32 -160 0
v -16 -160 0
v -32 -176 0
v -48 -176 0
v -48 -160 0
v -32 -160 0
v -48 -176 0
v -64 -176 0
v -64 -160 0
v -48 -160 0
v -64 -176 0
v -80 -176 0
v -80 -160 0
v -64 -160 0
v -80 -176 0
v -96 -176 0
v -96 -160 0
v -80 -160 0
v -96 -176 0
v -112 -176 0
v -112 -160 0
v -96 -160 0
v -112 -176 0
v -128 -176 0
v -128 -160 0
v -112 -160 0
v -128 -176 0
v -144 -176 0
v -144 -160 0
v -128 -160 0
v -144 -176 0
v -160 -176 0
v -160 -160 0
v -144 -160 0
v -160 -176 0
v -176 -176 0
v -176 -160 0
v -160 -160 0
v -176 -176 0
v -192 -176 0
v -192 -160 0
v -176 -160 0
v -192 -176 0
v -208 -176 0
v -208 -160 0
v -192 -160 0
v -208 -176 0
v -224 -176 0
v -224 -160 0
v -208 -160 0
v -224 -176 0
v -240 -176 0
v -240 -160 0
v -224 -160 0
v -240 -176 0
v -256 -176 0
v -256 -160 0
v -240 -160 0
v 0 -192 0
v -16 -192 0
v -16 -176 0
v 0 -176 0
v -16 -192 0
v -32 -192 0
v -32 -176 0
v -16 -176 0
v -32 -192 0
v -48 -192 0
v -48 -176 0
v -32 -176 0
v -48 -192 0
v -64 -192 0
v -64 -176 0
v -48 -176 0
v -64 -192 0
v -80 -192 0
v -80 -176 0
v -64 -176 0
v -80 -192 0
v -96 -192 0
v -96 -176 0
v -80 -176 0
v -96 -192 0
v -112 -192 0
v -112 -176 0
v -96 -176 0
v -112 -192 0
v -128 -192 0
v -128 -176 0
v -112 -176 0
v -128 -192 0
v -144 -192 0
v -144 -176 0
v -128 -176 0
v -144 -192 0
v -160 -192 0
v -160 -176 0
v -144 -176 0
v -160 -192 0
v -176 -192 0
v -176 -176 0
v -160 -176 0
v -176 -192 0
v -192 -192 0
v -192 -176 0
v -176 -176 0
v -192 -192 0
v -208 -192 0
v -208 -176 0
v -192 -176 0
v -208 -192 0
v -224 -192 0
v -224 -176 0
v -208 -176 0
v -224 -192 0
v -240 -192 0
v -240 -176 0
v -224 -176 0
v -240 -192 0
v -256 -192 0
v -256 -176 0
v -240 -176 0
v 0 -208 0
v -16 -208 0
v -16 -192 0
v 0 -192 0
v -16 -208 0
v -32 -208 0
v -32 -192 0
v -16 -192 0
v -32 -208 0
v -48 -208 0
v -48 -192 0
v -32 -192 0
v -48 -208 0
v -64 -208 0
v -64 -192 0
v -48 -192 0
v -64 -208 0
v -80 -208 0
v -80 -192 0
v -64 -192 0
v -80 -208 0
v -96 -208 0
v -96 -192 0
v -80 -192 0
v -96 -208 0
v -112 -208 0
v -112 -192 0
v -96 -192 0
v -112 -208 0
v -128 -208 0
v -128 -192 0
v -112 -192 0
v -128 -208 0
v -144 -208 0
v -144 -192 0
v -128 -192 0
v -144 -208 0
v -160 -208 0
v -160 -192 0
v -144 -192 0
v -160 -208 0
v -176 -208 0
v -176 -192 0
v -160 -192 0
v -176 -208 0
v -192 -208 0
v -192 -192 0
v -176 -192 0
v -192 -208 0
v -208 -208 0
v -208 -192 0
v -192 -192 0
v -208 -208 0
v -224 -208 0
v -224 -192 0
v -208 -192 0
v -224 -208 0
v -240 -208 0
v -240 -192 0
v -224 -192 0
v -240 -208 0
v -256 -208 0
v -256 -192 0
v -240 -192 0
v 0 -224 0
v -16 -224 0
v -16 -208 0
v 0 -208 0
v -16 -224 0
v -32 -224 0
v -32 -208 0
v -16 -208 0
v -32 -224 0
v -48 -224 0
v -48 -208 0
v -32 -208 0
v -48 -224 0
v -64 -224 0
v -64 -208 0
v -48 -208 0
v -64 -224 0
v -80 -224 0
v -80 -208 0
v -64 -208 0
v -80 -224 0
v -96 -224 0
v -96 -208 0
v -80 -208 0
v -96 -224 0
v -112 -224 0
v -112 -208 0
v -96 -208 0
v -112 -224 0
v -128 -224 0
v -128 -208 0
v -112 -208 0
v -128 -224 0
v -144 -224 0
v -144 -208 0
v -128 -208 0
v -144 -224 0
v -160 -224 0
v -160 -208 0
v -144 -208 0
v -160 -224 0
v -176 -224 0
v -176 -208 0
v -160 -208 0
v -176 -224 0
v -192 -224 0
v -192 -208 0
v -176 -208 0
v -192 -224 0
v -208 -224 0
v -208 -208 0
v -192 -208 0
v -208 -224 0
v -224 -224 0
v -224 -208 0
v -208 -208 0
v -224 -224 0
v -240 -224 0
v -240 -208 0
v -224 -208 0
v -240 -224 0
v -256 -224 0
v -256 -208 0
v -240 -208 0
v 0 -240 0
v -16 -240 0
v -16 -224 0
v 0 -224 0
v -16 -240 0
v -32 -240 0
v -32 -224 0
v -16 -224 0
v -32 -240 0
v -48 -240 0
v -48 -224 0
v -32 -224 0
v -48 -240 0
v -64 -240 0
v -64 -224 0
v -48 -224 0
v -64 -240 0
v -80 -240 0
v -80 -224 0
v -64 -224 0
v -80 -240 0
v -96 -240 0
v -96 -224 0
v -80 -224 0
v -96 -240 0
v -112 -240 0
v -112 -224 0
v -96 -224 0
v -112 -240 0
v -128 -240 0
v -128 -224 0
v -112 -224 0
v -128 -240 0
v -144 -240 0
v -144 -224 0
v -128 -224 0
v -144 -240 0
v -160 -240 0
v -160 -224 0
v -144 -224 0
v -160 -240 0
v -176 -240 0
v -176 -224 0
v -160 -224 0
v -176 -240 0
v -192 -240 0
v -192 -224 0
v -176 -224 0
v -192 -240 0
v -208 -240 0
v -208 -224 0
v -192 -224 0
v -208 -240 0
v -224 -240 0
v -224 -224 0
v -208 -224 0
v -224 -240 0
v -240 -240 0
v -240 -224 0
v -224 -224 0
v -240 -240 0
v -256 -240 0
v -256 -224 0
v -240 -224 0

# Texture cooridinates (Count = 35)
vt 0.375 0.125
vt 0.5 0.125
vt 0.5 0.25
vt 0.375 0.25
vt 0.375 0
vt 0.5 0
vt 0 0.75
vt 0.125 0.75
vt 0.125 0.875
vt 0 0.875
vt 0.5 0.375
vt 0.625 0.375
vt 0.625 0.5
vt 0.5 0.5
vt 0.625 0.625
vt 0.5 0.625
vt 0.625 0.25
vt 0.25 0.25
vt 0.375 0.375
vt 0.25 0.375
vt 0.75 0.625
vt 0.75 0.75
vt 0.625 0.75
vt 0.75 0.5
vt 0.875 0.5
vt 0.875 0.625
vt 0.625 0.125
vt 0.875 0.75
vt 0.5 0.75
vt 0.75 0.25
vt 0.75 0.375
vt 0.875 0.25
vt 0.875 0.375
vt 1 0.25
vt 1 0.375

# Normal
vn 0 0 -1

# Mesh description
g Cutman-ObjectTypes_mesh_0001

# Faces
f 1/1/1 2/2/1 3/3/1 4/4/1
f 5/5/1 6/6/1 7/2/1 8/1/1
f 9/7/1 10/8/1 11/9/1 12/10/1
f 13/7/1 14/8/1 15/9/1 16/10/1
f 17/7/1 18/8/1 19/9/1 20/10/1
f 21/7/1 22/8/1 23/9/1 24/10/1
f 25/7/1 26/8/1 27/9/1 28/10/1
f 29/7/1 30/8/1 31/9/1 32/10/1
f 33/7/1 34/8/1 35/9/1 36/10/1
f 37/7/1 38/8/1 39/9/1 40/10/1
f 41/11/1 42/12/1 43/13/1 44/14/1
f 45/11/1 46/12/1 47/13/1 48/14/1
f 49/11/1 50/12/1 51/13/1 52/14/1
f 53/11/1 54/12/1 55/13/1 56/14/1
f 57/1/1 58/2/1 59/3/1 60/4/1
f 61/5/1 62/6/1 63/2/1 64/1/1
f 65/5/1 66/6/1 67/2/1 68/1/1
f 69/1/1 70/2/1 71/3/1 72/4/1
f 73/7/1 74/8/1 75/9/1 76/10/1
f 77/7/1 78/8/1 79/9/1 80/10/1
f 81/7/1 82/8/1 83/9/1 84/10/1
f 85/7/1 86/8/1 87/9/1 88/10/1
f 89/7/1 90/8/1 91/9/1 92/10/1
f 93/7/1 94/8/1 95/9/1 96/10/1
f 97/7/1 98/8/1 99/9/1 100/10/1
f 101/7/1 102/8/1 103/9/1 104/10/1
f 105/14/1 106/13/1 107/15/1 108/16/1
f 109/3/1 110/17/1 111/12/1 112/11/1
f 113/14/1 114/13/1 115/15/1 116/16/1
f 117/3/1 118/17/1 119/12/1 120/11/1
f 121/5/1 122/6/1 123/2/1 124/1/1
f 125/1/1 126/2/1 127/3/1 128/4/1
f 129/1/1 130/2/1 131/3/1 132/4/1
f 133/5/1 134/6/1 135/2/1 136/1/1
f 137/7/1 138/8/1 139/9/1 140/10/1
f 141/7/1 142/8/1 143/9/1 144/10/1
f 145/7/1 146/8/1 147/9/1 148/10/1
f 149/7/1 150/8/1 151/9/1 152/10/1
f 153/7/1 154/8/1 155/9/1 156/10/1
f 157/7/1 158/8/1 159/9/1 160/10/1
f 161/7/1 162/8/1 163/9/1 164/10/1
f 165/7/1 166/8/1 167/9/1 168/10/1
f 169/3/1 170/17/1 171/12/1 172/11/1
f 173/3/1 174/17/1 175/12/1 176/11/1
f 177/3/1 178/17/1 179/12/1 180/11/1
f 181/3/1 182/17/1 183/12/1 184/11/1
f 185/1/1 186/2/1 187/3/1 188/4/1
f 189/5/1 190/6/1 191/2/1 192/1/1
f 193/5/1 194/6/1 195/2/1 196/1/1
f 197/1/1 198/2/1 199/3/1 200/4/1
f 201/7/1 202/8/1 203/9/1 204/10/1
f 205/7/1 206/8/1 207/9/1 208/10/1
f 209/7/1 210/8/1 211/9/1 212/10/1
f 213/7/1 214/8/1 215/9/1 216/10/1
f 217/7/1 218/8/1 219/9/1 220/10/1
f 221/7/1 222/8/1 223/9/1 224/10/1
f 225/7/1 226/8/1 227/9/1 228/10/1
f 229/7/1 230/8/1 231/9/1 232/10/1
f 233/3/1 234/17/1 235/12/1 236/11/1
f 237/14/1 238/13/1 239/15/1 240/16/1
f 241/3/1 242/17/1 243/12/1 244/11/1
f 245/3/1 246/17/1 247/12/1 248/11/1
f 249/5/1 250/6/1 251/2/1 252/1/1
f 253/1/1 254/2/1 255/3/1 256/4/1
f 257/1/1 258/2/1 259/3/1 260/4/1
f 261/5/1 262/6/1 263/2/1 264/1/1
f 265/18/1 266/4/1 267/19/1 268/20/1
f 269/18/1 270/4/1 271/19/1 272/20/1
f 273/7/1 274/8/1 275/9/1 276/10/1
f 277/7/1 278/8/1 279/9/1 280/10/1
f 281/7/1 282/8/1 283/9/1 284/10/1
f 285/7/1 286/8/1 287/9/1 288/10/1
f 289/7/1 290/8/1 291/9/1 292/10/1
f 293/7/1 294/8/1 295/9/1 296/10/1
f 297/15/1 298/21/1 299/22/1 300/23/1
f 301/24/1 302/25/1 303/26/1 304/21/1
f 305/18/1 306/4/1 307/19/1 308/20/1
f 309/18/1 310/4/1 311/19/1 312/20/1
f 313/1/1 314/2/1 315/3/1 316/4/1
f 317/5/1 318/6/1 319/2/1 320/1/1
f 321/5/1 322/6/1 323/2/1 324/1/1
f 325/1/1 326/2/1 327/3/1 328/4/1
f 329/7/1 330/8/1 331/9/1 332/10/1
f 333/7/1 334/8/1 335/9/1 336/10/1
f 337/7/1 338/8/1 339/9/1 340/10/1
f 341/7/1 342/8/1 343/9/1 344/10/1
f 345/7/1 346/8/1 347/9/1 348/10/1
f 349/7/1 350/8/1 351/9/1 352/10/1
f 353/7/1 354/8/1 355/9/1 356/10/1
f 357/7/1 358/8/1 359/9/1 360/10/1
f 361/3/1 362/17/1 363/12/1 364/11/1
f 365/3/1 366/17/1 367/12/1 368/11/1
f 369/11/1 370/12/1 371/13/1 372/14/1
f 373/11/1 374/12/1 375/13/1 376/14/1
f 377/5/1 378/6/1 379/2/1 380/1/1
f 381/1/1 382/2/1 383/3/1 384/4/1
f 385/1/1 386/2/1 387/3/1 388/4/1
f 389/5/1 390/6/1 391/2/1 392/1/1
f 393/7/1 394/8/1 395/9/1 396/10/1
f 397/7/1 398/8/1 399/9/1 400/10/1
f 401/7/1 402/8/1 403/9/1 404/10/1
f 405/7/1 406/8/1 407/9/1 408/10/1
f 409/7/1 410/8/1 411/9/1 412/10/1
f 413/7/1 414/8/1 415/9/1 416/10/1
f 417/18/1 418/4/1 419/19/1 420/20/1
f 421/18/1 422/4/1 423/19/1 424/20/1
f 425/14/1 426/13/1 427/15/1 428/16/1
f 429/3/1 430/17/1 431/12/1 432/11/1
f 433/3/1 434/17/1 435/12/1 436/11/1
f 437/14/1 438/13/1 439/15/1 440/16/1
f 441/1/1 442/2/1 443/3/1 444/4/1
f 445/5/1 446/6/1 447/2/1 448/1/1
f 449/5/1 450/6/1 451/2/1 452/1/1
f 453/1/1 454/2/1 455/3/1 456/4/1
f 457/18/1 458/4/1 459/19/1 460/20/1
f 461/18/1 462/4/1 463/19/1 464/20/1
f 465/2/1 466/27/1 467/17/1 468/3/1
f 469/18/1 470/4/1 471/19/1 472/20/1
f 473/7/1 474/8/1 475/9/1 476/10/1
f 477/7/1 478/8/1 479/9/1 480/10/1
f 481/11/1 482/12/1 483/13/1 484/14/1
f 485/11/1 486/12/1 487/13/1 488/14/1
f 489/3/1 490/17/1 491/12/1 492/11/1
f 493/3/1 494/17/1 495/12/1 496/11/1
f 497/18/1 498/4/1 499/19/1 500/20/1
f 501/18/1 502/4/1 503/19/1 504/20/1
f 505/5/1 506/6/1 507/2/1 508/1/1
f 509/1/1 510/2/1 511/3/1 512/4/1
f 513/1/1 514/2/1 515/3/1 516/4/1
f 517/5/1 518/6/1 519/2/1 520/1/1
f 521/7/1 522/8/1 523/9/1 524/10/1
f 525/7/1 526/8/1 527/9/1 528/10/1
f 529/2/1 530/27/1 531/17/1 532/3/1
f 533/7/1 534/8/1 535/9/1 536/10/1
f 537/7/1 538/8/1 539/9/1 540/10/1
f 541/7/1 542/8/1 543/9/1 544/10/1
f 545/15/1 546/21/1 547/22/1 548/23/1
f 549/21/1 550/26/1 551/28/1 552/22/1
f 553/3/1 554/17/1 555/12/1 556/11/1
f 557/3/1 558/17/1 559/12/1 560/11/1
f 561/11/1 562/12/1 563/13/1 564/14/1
f 565/16/1 566/15/1 567/23/1 568/29/1
f 569/1/1 570/2/1 571/3/1 572/4/1
f 573/5/1 574/6/1 575/2/1 576/1/1
f 577/5/1 578/6/1 579/2/1 580/1/1
f 581/1/1 582/2/1 583/3/1 584/4/1
f 585/7/1 586/8/1 587/9/1 588/10/1
f 589/7/1 590/8/1 591/9/1 592/10/1
f 593/2/1 594/27/1 595/17/1 596/3/1
f 597/7/1 598/8/1 599/9/1 600/10/1
f 601/7/1 602/8/1 603/9/1 604/10/1
f 605/7/1 606/8/1 607/9/1 608/10/1
f 609/3/1 610/17/1 611/12/1 612/11/1
f 613/15/1 614/21/1 615/22/1 616/23/1
f 617/14/1 618/13/1 619/15/1 620/16/1
f 621/3/1 622/17/1 623/12/1 624/11/1
f 625/21/1 626/26/1 627/28/1 628/22/1
f 629/24/1 630/25/1 631/26/1 632/21/1
f 633/5/1 634/6/1 635/2/1 636/1/1
f 637/1/1 638/2/1 639/3/1 640/4/1
f 641/1/1 642/2/1 643/3/1 644/4/1
f 645/5/1 646/6/1 647/2/1 648/1/1
f 649/7/1 650/8/1 651/9/1 652/10/1
f 653/7/1 654/8/1 655/9/1 656/10/1
f 657/2/1 658/27/1 659/17/1 660/3/1
f 661/7/1 662/8/1 663/9/1 664/10/1
f 665/17/1 666/30/1 667/31/1 668/12/1
f 669/30/1 670/32/1 671/33/1 672/31/1
f 673/3/1 674/17/1 675/12/1 676/11/1
f 677/3/1 678/17/1 679/12/1 680/11/1
f 681/3/1 682/17/1 683/12/1 684/11/1
f 685/3/1 686/17/1 687/12/1 688/11/1
f 689/15/1 690/21/1 691/22/1 692/23/1
f 693/24/1 694/25/1 695/26/1 696/21/1
f 697/1/1 698/2/1 699/3/1 700/4/1
f 701/5/1 702/6/1 703/2/1 704/1/1
f 705/5/1 706/6/1 707/2/1 708/1/1
f 709/1/1 710/2/1 711/3/1 712/4/1
f 713/7/1 714/8/1 715/9/1 716/10/1
f 717/7/1 718/8/1 719/9/1 720/10/1
f 721/2/1 722/27/1 723/17/1 724/3/1
f 725/7/1 726/8/1 727/9/1 728/10/1
f 729/32/1 730/34/1 731/35/1 732/33/1
f 733/30/1 734/32/1 735/33/1 736/31/1
f 737/3/1 738/17/1 739/12/1 740/11/1
f 741/14/1 742/13/1 743/15/1 744/16/1
f 745/14/1 746/13/1 747/15/1 748/16/1
f 749/3/1 750/17/1 751/12/1 752/11/1
f 753/3/1 754/17/1 755/12/1 756/11/1
f 757/3/1 758/17/1 759/12/1 760/11/1
f 761/5/1 762/6/1 763/2/1 764/1/1
f 765/1/1 766/2/1 767/3/1 768/4/1
f 769/1/1 770/2/1 771/3/1 772/4/1
f 773/5/1 774/6/1 775/2/1 776/1/1
f 777/18/1 778/4/1 779/19/1 780/20/1
f 781/18/1 782/4/1 783/19/1 784/20/1
f 785/18/1 786/4/1 787/19/1 788/20/1
f 789/18/1 790/4/1 791/19/1 792/20/1
f 793/18/1 794/4/1 795/19/1 796/20/1
f 797/18/1 798/4/1 799/19/1 800/20/1
f 801/18/1 802/4/1 803/19/1 804/20/1
f 805/18/1 806/4/1 807/19/1 808/20/1
f 809/18/1 810/4/1 811/19/1 812/20/1
f 813/18/1 814/4/1 815/19/1 816/20/1
f 817/18/1 818/4/1 819/19/1 820/20/1
f 821/18/1 822/4/1 823/19/1 824/20/1
f 825/1/1 826/2/1 827/3/1 828/4/1
f 829/5/1 830/6/1 831/2/1 832/1/1
f 833/5/1 834/6/1 835/2/1 836/1/1
f 837/1/1 838/2/1 839/3/1 840/4/1
f 841/5/1 842/6/1 843/2/1 844/1/1
f 845/1/1 846/2/1 847/3/1 848/4/1
f 849/5/1 850/6/1 851/2/1 852/1/1
f 853/1/1 854/2/1 855/3/1 856/4/1
f 857/5/1 858/6/1 859/2/1 860/1/1
f 861/1/1 862/2/1 863/3/1 864/4/1
f 865/5/1 866/6/1 867/2/1 868/1/1
f 869/1/1 870/2/1 871/3/1 872/4/1
f 873/5/1 874/6/1 875/2/1 876/1/1
f 877/1/1 878/2/1 879/3/1 880/4/1
f 881/5/1 882/6/1 883/2/1 884/1/1
f 885/1/1 886/2/1 887/3/1 888/4/1
f 889/5/1 890/6/1 891/2/1 892/1/1
f 893/1/1 894/2/1 895/3/1 896/4/1
f 897/1/1 898/2/1 899/3/1 900/4/1
f 901/5/1 902/6/1 903/2/1 904/1/1
f 905/1/1 906/2/1 907/3/1 908/4/1
f 909/5/1 910/6/1 911/2/1 912/1/1
f 913/1/1 914/2/1 915/3/1 916/4/1
f 917/5/1 918/6/1 919/2/1 920/1/1
f 921/1/1 922/2/1 923/3/1 924/4/1
f 925/5/1 926/6/1 927/2/1 928/1/1
f 929/1/1 930/2/1 931/3/1 932/4/1
f 933/5/1 934/6/1 935/2/1 936/1/1
f 937/1/1 938/2/1 939/3/1 940/4/1
f 941/5/1 942/6/1 943/2/1 944/1/1
f 945/1/1 946/2/1 947/3/1 948/4/1
f 949/5/1 950/6/1 951/2/1 952/1/1
f 953/1/1 954/2/1 955/3/1 956/4/1
f 957/5/1 958/6/1 959/2/1 960/1/1

