# Tiled2Unity generated file. Do not modify by hand.
# Wavefront file for 'MagmaManLair-WithCollision_mesh_0001.obj'

# Vertices (Count = 896)
v 0 -16 0
v -16 -16 0
v -16 0 0
v 0 0 0
v -16 -16 0
v -32 -16 0
v -32 0 0
v -16 0 0
v -32 -16 0
v -48 -16 0
v -48 0 0
v -32 0 0
v -48 -16 0
v -64 -16 0
v -64 0 0
v -48 0 0
v -64 -16 0
v -80 -16 0
v -80 0 0
v -64 0 0
v -80 -16 0
v -96 -16 0
v -96 0 0
v -80 0 0
v -96 -16 0
v -112 -16 0
v -112 0 0
v -96 0 0
v -112 -16 0
v -128 -16 0
v -128 0 0
v -112 0 0
v -128 -16 0
v -144 -16 0
v -144 0 0
v -128 0 0
v -144 -16 0
v -160 -16 0
v -160 0 0
v -144 0 0
v -160 -16 0
v -176 -16 0
v -176 0 0
v -160 0 0
v -176 -16 0
v -192 -16 0
v -192 0 0
v -176 0 0
v -192 -16 0
v -208 -16 0
v -208 0 0
v -192 0 0
v -208 -16 0
v -224 -16 0
v -224 0 0
v -208 0 0
v -224 -16 0
v -240 -16 0
v -240 0 0
v -224 0 0
v -240 -16 0
v -256 -16 0
v -256 0 0
v -240 0 0
v 0 -32 0
v -16 -32 0
v -16 -16 0
v 0 -16 0
v -16 -32 0
v -32 -32 0
v -32 -16 0
v -16 -16 0
v -32 -32 0
v -48 -32 0
v -48 -16 0
v -32 -16 0
v -48 -32 0
v -64 -32 0
v -64 -16 0
v -48 -16 0
v -64 -32 0
v -80 -32 0
v -80 -16 0
v -64 -16 0
v -80 -32 0
v -96 -32 0
v -96 -16 0
v -80 -16 0
v -96 -32 0
v -112 -32 0
v -112 -16 0
v -96 -16 0
v -112 -32 0
v -128 -32 0
v -128 -16 0
v -112 -16 0
v -128 -32 0
v -144 -32 0
v -144 -16 0
v -128 -16 0
v -144 -32 0
v -160 -32 0
v -160 -16 0
v -144 -16 0
v -160 -32 0
v -176 -32 0
v -176 -16 0
v -160 -16 0
v -176 -32 0
v -192 -32 0
v -192 -16 0
v -176 -16 0
v -192 -32 0
v -208 -32 0
v -208 -16 0
v -192 -16 0
v -208 -32 0
v -224 -32 0
v -224 -16 0
v -208 -16 0
v -224 -32 0
v -240 -32 0
v -240 -16 0
v -224 -16 0
v -240 -32 0
v -256 -32 0
v -256 -16 0
v -240 -16 0
v 0 -48 0
v -16 -48 0
v -16 -32 0
v 0 -32 0
v -16 -48 0
v -32 -48 0
v -32 -32 0
v -16 -32 0
v -32 -48 0
v -48 -48 0
v -48 -32 0
v -32 -32 0
v -48 -48 0
v -64 -48 0
v -64 -32 0
v -48 -32 0
v -64 -48 0
v -80 -48 0
v -80 -32 0
v -64 -32 0
v -80 -48 0
v -96 -48 0
v -96 -32 0
v -80 -32 0
v -96 -48 0
v -112 -48 0
v -112 -32 0
v -96 -32 0
v -112 -48 0
v -128 -48 0
v -128 -32 0
v -112 -32 0
v -128 -48 0
v -144 -48 0
v -144 -32 0
v -128 -32 0
v -144 -48 0
v -160 -48 0
v -160 -32 0
v -144 -32 0
v -160 -48 0
v -176 -48 0
v -176 -32 0
v -160 -32 0
v -176 -48 0
v -192 -48 0
v -192 -32 0
v -176 -32 0
v -192 -48 0
v -208 -48 0
v -208 -32 0
v -192 -32 0
v -208 -48 0
v -224 -48 0
v -224 -32 0
v -208 -32 0
v -224 -48 0
v -240 -48 0
v -240 -32 0
v -224 -32 0
v -240 -48 0
v -256 -48 0
v -256 -32 0
v -240 -32 0
v 0 -64 0
v -16 -64 0
v -16 -48 0
v 0 -48 0
v -16 -64 0
v -32 -64 0
v -32 -48 0
v -16 -48 0
v -32 -64 0
v -48 -64 0
v -48 -48 0
v -32 -48 0
v -48 -64 0
v -64 -64 0
v -64 -48 0
v -48 -48 0
v -64 -64 0
v -80 -64 0
v -80 -48 0
v -64 -48 0
v -80 -64 0
v -96 -64 0
v -96 -48 0
v -80 -48 0
v -96 -64 0
v -112 -64 0
v -112 -48 0
v -96 -48 0
v -112 -64 0
v -128 -64 0
v -128 -48 0
v -112 -48 0
v -128 -64 0
v -144 -64 0
v -144 -48 0
v -128 -48 0
v -144 -64 0
v -160 -64 0
v -160 -48 0
v -144 -48 0
v -160 -64 0
v -176 -64 0
v -176 -48 0
v -160 -48 0
v -176 -64 0
v -192 -64 0
v -192 -48 0
v -176 -48 0
v -192 -64 0
v -208 -64 0
v -208 -48 0
v -192 -48 0
v -208 -64 0
v -224 -64 0
v -224 -48 0
v -208 -48 0
v -224 -64 0
v -240 -64 0
v -240 -48 0
v -224 -48 0
v -240 -64 0
v -256 -64 0
v -256 -48 0
v -240 -48 0
v 0 -80 0
v -16 -80 0
v -16 -64 0
v 0 -64 0
v -16 -80 0
v -32 -80 0
v -32 -64 0
v -16 -64 0
v -32 -80 0
v -48 -80 0
v -48 -64 0
v -32 -64 0
v -48 -80 0
v -64 -80 0
v -64 -64 0
v -48 -64 0
v -64 -80 0
v -80 -80 0
v -80 -64 0
v -64 -64 0
v -80 -80 0
v -96 -80 0
v -96 -64 0
v -80 -64 0
v -96 -80 0
v -112 -80 0
v -112 -64 0
v -96 -64 0
v -112 -80 0
v -128 -80 0
v -128 -64 0
v -112 -64 0
v -128 -80 0
v -144 -80 0
v -144 -64 0
v -128 -64 0
v -144 -80 0
v -160 -80 0
v -160 -64 0
v -144 -64 0
v -160 -80 0
v -176 -80 0
v -176 -64 0
v -160 -64 0
v -176 -80 0
v -192 -80 0
v -192 -64 0
v -176 -64 0
v -192 -80 0
v -208 -80 0
v -208 -64 0
v -192 -64 0
v -208 -80 0
v -224 -80 0
v -224 -64 0
v -208 -64 0
v -224 -80 0
v -240 -80 0
v -240 -64 0
v -224 -64 0
v -240 -80 0
v -256 -80 0
v -256 -64 0
v -240 -64 0
v 0 -96 0
v -16 -96 0
v -16 -80 0
v 0 -80 0
v -16 -96 0
v -32 -96 0
v -32 -80 0
v -16 -80 0
v -32 -96 0
v -48 -96 0
v -48 -80 0
v -32 -80 0
v -48 -96 0
v -64 -96 0
v -64 -80 0
v -48 -80 0
v -64 -96 0
v -80 -96 0
v -80 -80 0
v -64 -80 0
v -80 -96 0
v -96 -96 0
v -96 -80 0
v -80 -80 0
v -96 -96 0
v -112 -96 0
v -112 -80 0
v -96 -80 0
v -112 -96 0
v -128 -96 0
v -128 -80 0
v -112 -80 0
v -128 -96 0
v -144 -96 0
v -144 -80 0
v -128 -80 0
v -144 -96 0
v -160 -96 0
v -160 -80 0
v -144 -80 0
v -160 -96 0
v -176 -96 0
v -176 -80 0
v -160 -80 0
v -176 -96 0
v -192 -96 0
v -192 -80 0
v -176 -80 0
v -192 -96 0
v -208 -96 0
v -208 -80 0
v -192 -80 0
v -208 -96 0
v -224 -96 0
v -224 -80 0
v -208 -80 0
v -224 -96 0
v -240 -96 0
v -240 -80 0
v -224 -80 0
v -240 -96 0
v -256 -96 0
v -256 -80 0
v -240 -80 0
v 0 -112 0
v -16 -112 0
v -16 -96 0
v 0 -96 0
v -16 -112 0
v -32 -112 0
v -32 -96 0
v -16 -96 0
v -32 -112 0
v -48 -112 0
v -48 -96 0
v -32 -96 0
v -48 -112 0
v -64 -112 0
v -64 -96 0
v -48 -96 0
v -64 -112 0
v -80 -112 0
v -80 -96 0
v -64 -96 0
v -80 -112 0
v -96 -112 0
v -96 -96 0
v -80 -96 0
v -96 -112 0
v -112 -112 0
v -112 -96 0
v -96 -96 0
v -112 -112 0
v -128 -112 0
v -128 -96 0
v -112 -96 0
v -128 -112 0
v -144 -112 0
v -144 -96 0
v -128 -96 0
v -144 -112 0
v -160 -112 0
v -160 -96 0
v -144 -96 0
v -160 -112 0
v -176 -112 0
v -176 -96 0
v -160 -96 0
v -176 -112 0
v -192 -112 0
v -192 -96 0
v -176 -96 0
v -192 -112 0
v -208 -112 0
v -208 -96 0
v -192 -96 0
v -208 -112 0
v -224 -112 0
v -224 -96 0
v -208 -96 0
v -224 -112 0
v -240 -112 0
v -240 -96 0
v -224 -96 0
v -240 -112 0
v -256 -112 0
v -256 -96 0
v -240 -96 0
v 0 -128 0
v -16 -128 0
v -16 -112 0
v 0 -112 0
v -16 -128 0
v -32 -128 0
v -32 -112 0
v -16 -112 0
v -32 -128 0
v -48 -128 0
v -48 -112 0
v -32 -112 0
v -48 -128 0
v -64 -128 0
v -64 -112 0
v -48 -112 0
v -64 -128 0
v -80 -128 0
v -80 -112 0
v -64 -112 0
v -80 -128 0
v -96 -128 0
v -96 -112 0
v -80 -112 0
v -96 -128 0
v -112 -128 0
v -112 -112 0
v -96 -112 0
v -112 -128 0
v -128 -128 0
v -128 -112 0
v -112 -112 0
v -128 -128 0
v -144 -128 0
v -144 -112 0
v -128 -112 0
v -144 -128 0
v -160 -128 0
v -160 -112 0
v -144 -112 0
v -160 -128 0
v -176 -128 0
v -176 -112 0
v -160 -112 0
v -176 -128 0
v -192 -128 0
v -192 -112 0
v -176 -112 0
v -192 -128 0
v -208 -128 0
v -208 -112 0
v -192 -112 0
v -208 -128 0
v -224 -128 0
v -224 -112 0
v -208 -112 0
v -224 -128 0
v -240 -128 0
v -240 -112 0
v -224 -112 0
v -240 -128 0
v -256 -128 0
v -256 -112 0
v -240 -112 0
v 0 -144 0
v -16 -144 0
v -16 -128 0
v 0 -128 0
v -16 -144 0
v -32 -144 0
v -32 -128 0
v -16 -128 0
v -32 -144 0
v -48 -144 0
v -48 -128 0
v -32 -128 0
v -48 -144 0
v -64 -144 0
v -64 -128 0
v -48 -128 0
v -64 -144 0
v -80 -144 0
v -80 -128 0
v -64 -128 0
v -80 -144 0
v -96 -144 0
v -96 -128 0
v -80 -128 0
v -96 -144 0
v -112 -144 0
v -112 -128 0
v -96 -128 0
v -112 -144 0
v -128 -144 0
v -128 -128 0
v -112 -128 0
v -128 -144 0
v -144 -144 0
v -144 -128 0
v -128 -128 0
v -144 -144 0
v -160 -144 0
v -160 -128 0
v -144 -128 0
v -160 -144 0
v -176 -144 0
v -176 -128 0
v -160 -128 0
v -176 -144 0
v -192 -144 0
v -192 -128 0
v -176 -128 0
v -192 -144 0
v -208 -144 0
v -208 -128 0
v -192 -128 0
v -208 -144 0
v -224 -144 0
v -224 -128 0
v -208 -128 0
v -224 -144 0
v -240 -144 0
v -240 -128 0
v -224 -128 0
v -240 -144 0
v -256 -144 0
v -256 -128 0
v -240 -128 0
v 0 -160 0
v -16 -160 0
v -16 -144 0
v 0 -144 0
v -16 -160 0
v -32 -160 0
v -32 -144 0
v -16 -144 0
v -32 -160 0
v -48 -160 0
v -48 -144 0
v -32 -144 0
v -48 -160 0
v -64 -160 0
v -64 -144 0
v -48 -144 0
v -64 -160 0
v -80 -160 0
v -80 -144 0
v -64 -144 0
v -80 -160 0
v -96 -160 0
v -96 -144 0
v -80 -144 0
v -96 -160 0
v -112 -160 0
v -112 -144 0
v -96 -144 0
v -112 -160 0
v -128 -160 0
v -128 -144 0
v -112 -144 0
v -128 -160 0
v -144 -160 0
v -144 -144 0
v -128 -144 0
v -144 -160 0
v -160 -160 0
v -160 -144 0
v -144 -144 0
v -160 -160 0
v -176 -160 0
v -176 -144 0
v -160 -144 0
v -176 -160 0
v -192 -160 0
v -192 -144 0
v -176 -144 0
v -192 -160 0
v -208 -160 0
v -208 -144 0
v -192 -144 0
v -208 -160 0
v -224 -160 0
v -224 -144 0
v -208 -144 0
v -224 -160 0
v -240 -160 0
v -240 -144 0
v -224 -144 0
v -240 -160 0
v -256 -160 0
v -256 -144 0
v -240 -144 0
v 0 -176 0
v -16 -176 0
v -16 -160 0
v 0 -160 0
v -16 -176 0
v -32 -176 0
v -32 -160 0
v -16 -160 0
v -32 -176 0
v -48 -176 0
v -48 -160 0
v -32 -160 0
v -48 -176 0
v -64 -176 0
v -64 -160 0
v -48 -160 0
v -64 -176 0
v -80 -176 0
v -80 -160 0
v -64 -160 0
v -80 -176 0
v -96 -176 0
v -96 -160 0
v -80 -160 0
v -96 -176 0
v -112 -176 0
v -112 -160 0
v -96 -160 0
v -112 -176 0
v -128 -176 0
v -128 -160 0
v -112 -160 0
v -128 -176 0
v -144 -176 0
v -144 -160 0
v -128 -160 0
v -144 -176 0
v -160 -176 0
v -160 -160 0
v -144 -160 0
v -160 -176 0
v -176 -176 0
v -176 -160 0
v -160 -160 0
v -176 -176 0
v -192 -176 0
v -192 -160 0
v -176 -160 0
v -192 -176 0
v -208 -176 0
v -208 -160 0
v -192 -160 0
v -208 -176 0
v -224 -176 0
v -224 -160 0
v -208 -160 0
v -224 -176 0
v -240 -176 0
v -240 -160 0
v -224 -160 0
v -240 -176 0
v -256 -176 0
v -256 -160 0
v -240 -160 0
v 0 -192 0
v -16 -192 0
v -16 -176 0
v 0 -176 0
v -16 -192 0
v -32 -192 0
v -32 -176 0
v -16 -176 0
v -32 -192 0
v -48 -192 0
v -48 -176 0
v -32 -176 0
v -48 -192 0
v -64 -192 0
v -64 -176 0
v -48 -176 0
v -64 -192 0
v -80 -192 0
v -80 -176 0
v -64 -176 0
v -80 -192 0
v -96 -192 0
v -96 -176 0
v -80 -176 0
v -96 -192 0
v -112 -192 0
v -112 -176 0
v -96 -176 0
v -112 -192 0
v -128 -192 0
v -128 -176 0
v -112 -176 0
v -128 -192 0
v -144 -192 0
v -144 -176 0
v -128 -176 0
v -144 -192 0
v -160 -192 0
v -160 -176 0
v -144 -176 0
v -160 -192 0
v -176 -192 0
v -176 -176 0
v -160 -176 0
v -176 -192 0
v -192 -192 0
v -192 -176 0
v -176 -176 0
v -192 -192 0
v -208 -192 0
v -208 -176 0
v -192 -176 0
v -208 -192 0
v -224 -192 0
v -224 -176 0
v -208 -176 0
v -224 -192 0
v -240 -192 0
v -240 -176 0
v -224 -176 0
v -240 -192 0
v -256 -192 0
v -256 -176 0
v -240 -176 0
v 0 -208 0
v -16 -208 0
v -16 -192 0
v 0 -192 0
v -16 -208 0
v -32 -208 0
v -32 -192 0
v -16 -192 0
v -32 -208 0
v -48 -208 0
v -48 -192 0
v -32 -192 0
v -48 -208 0
v -64 -208 0
v -64 -192 0
v -48 -192 0
v -64 -208 0
v -80 -208 0
v -80 -192 0
v -64 -192 0
v -80 -208 0
v -96 -208 0
v -96 -192 0
v -80 -192 0
v -96 -208 0
v -112 -208 0
v -112 -192 0
v -96 -192 0
v -112 -208 0
v -128 -208 0
v -128 -192 0
v -112 -192 0
v -128 -208 0
v -144 -208 0
v -144 -192 0
v -128 -192 0
v -144 -208 0
v -160 -208 0
v -160 -192 0
v -144 -192 0
v -160 -208 0
v -176 -208 0
v -176 -192 0
v -160 -192 0
v -176 -208 0
v -192 -208 0
v -192 -192 0
v -176 -192 0
v -192 -208 0
v -208 -208 0
v -208 -192 0
v -192 -192 0
v -208 -208 0
v -224 -208 0
v -224 -192 0
v -208 -192 0
v -224 -208 0
v -240 -208 0
v -240 -192 0
v -224 -192 0
v -240 -208 0
v -256 -208 0
v -256 -192 0
v -240 -192 0
v 0 -224 0
v -16 -224 0
v -16 -208 0
v 0 -208 0
v -16 -224 0
v -32 -224 0
v -32 -208 0
v -16 -208 0
v -32 -224 0
v -48 -224 0
v -48 -208 0
v -32 -208 0
v -48 -224 0
v -64 -224 0
v -64 -208 0
v -48 -208 0
v -64 -224 0
v -80 -224 0
v -80 -208 0
v -64 -208 0
v -80 -224 0
v -96 -224 0
v -96 -208 0
v -80 -208 0
v -96 -224 0
v -112 -224 0
v -112 -208 0
v -96 -208 0
v -112 -224 0
v -128 -224 0
v -128 -208 0
v -112 -208 0
v -128 -224 0
v -144 -224 0
v -144 -208 0
v -128 -208 0
v -144 -224 0
v -160 -224 0
v -160 -208 0
v -144 -208 0
v -160 -224 0
v -176 -224 0
v -176 -208 0
v -160 -208 0
v -176 -224 0
v -192 -224 0
v -192 -208 0
v -176 -208 0
v -192 -224 0
v -208 -224 0
v -208 -208 0
v -192 -208 0
v -208 -224 0
v -224 -224 0
v -224 -208 0
v -208 -208 0
v -224 -224 0
v -240 -224 0
v -240 -208 0
v -224 -208 0
v -240 -224 0
v -256 -224 0
v -256 -208 0
v -240 -208 0

# Texture cooridinates (Count = 39)
vt 0 0.5
vt 0.25 0.5
vt 0.25 0.625
vt 0 0.625
vt 0.5 0.5
vt 0.75 0.5
vt 0.75 0.625
vt 0.5 0.625
vt 0 0.875
vt 0.25 0.875
vt 0.25 1
vt 0 1
vt 0.5 0.875
vt 0.5 1
vt 0 0.75
vt 0.25 0.75
vt 0.5 0.75
vt 0.75 0.75
vt 0.75 0.875
vt 0 0.375
vt 0.25 0.375
vt 1 0.875
vt 1 1
vt 0.75 1
vt 1 0.625
vt 1 0.75
vt 1 0.5
vt 0.5 0.375
vt 0 0.25
vt 0.25 0.25
vt 0.5 0.25
vt 0 0.125
vt 0.25 0.125
vt 0.5 0.125
vt 0 0
vt 0.25 0
vt 0.5 0
vt 0.75 0.375
vt 1 0.375

# Normal
vn 0 0 -1

# Mesh description
g MagmaManLair-WithCollision_mesh_0001

# Faces
f 1/1/1 2/2/1 3/3/1 4/4/1
f 5/5/1 6/6/1 7/7/1 8/8/1
f 9/5/1 10/6/1 11/7/1 12/8/1
f 13/5/1 14/6/1 15/7/1 16/8/1
f 17/5/1 18/6/1 19/7/1 20/8/1
f 21/5/1 22/6/1 23/7/1 24/8/1
f 25/5/1 26/6/1 27/7/1 28/8/1
f 29/5/1 30/6/1 31/7/1 32/8/1
f 33/5/1 34/6/1 35/7/1 36/8/1
f 37/5/1 38/6/1 39/7/1 40/8/1
f 41/5/1 42/6/1 43/7/1 44/8/1
f 45/5/1 46/6/1 47/7/1 48/8/1
f 49/5/1 50/6/1 51/7/1 52/8/1
f 53/5/1 54/6/1 55/7/1 56/8/1
f 57/5/1 58/6/1 59/7/1 60/8/1
f 61/1/1 62/2/1 63/3/1 64/4/1
f 65/1/1 66/2/1 67/3/1 68/4/1
f 69/9/1 70/10/1 71/11/1 72/12/1
f 73/9/1 74/10/1 75/11/1 76/12/1
f 77/9/1 78/10/1 79/11/1 80/12/1
f 81/9/1 82/10/1 83/11/1 84/12/1
f 85/10/1 86/13/1 87/14/1 88/11/1
f 89/10/1 90/13/1 91/14/1 92/11/1
f 93/9/1 94/10/1 95/11/1 96/12/1
f 97/9/1 98/10/1 99/11/1 100/12/1
f 101/9/1 102/10/1 103/11/1 104/12/1
f 105/9/1 106/10/1 107/11/1 108/12/1
f 109/9/1 110/10/1 111/11/1 112/12/1
f 113/9/1 114/10/1 115/11/1 116/12/1
f 117/9/1 118/10/1 119/11/1 120/12/1
f 121/9/1 122/10/1 123/11/1 124/12/1
f 125/1/1 126/2/1 127/3/1 128/4/1
f 129/1/1 130/2/1 131/3/1 132/4/1
f 133/15/1 134/16/1 135/10/1 136/9/1
f 137/15/1 138/16/1 139/10/1 140/9/1
f 141/15/1 142/16/1 143/10/1 144/9/1
f 145/15/1 146/16/1 147/10/1 148/9/1
f 149/16/1 150/17/1 151/13/1 152/10/1
f 153/17/1 154/18/1 155/19/1 156/13/1
f 157/15/1 158/16/1 159/10/1 160/9/1
f 161/15/1 162/16/1 163/10/1 164/9/1
f 165/15/1 166/16/1 167/10/1 168/9/1
f 169/15/1 170/16/1 171/10/1 172/9/1
f 173/15/1 174/16/1 175/10/1 176/9/1
f 177/15/1 178/16/1 179/10/1 180/9/1
f 181/15/1 182/16/1 183/10/1 184/9/1
f 185/15/1 186/16/1 187/10/1 188/9/1
f 189/1/1 190/2/1 191/3/1 192/4/1
f 193/20/1 194/21/1 195/2/1 196/1/1
f 197/15/1 198/16/1 199/10/1 200/9/1
f 201/15/1 202/16/1 203/10/1 204/9/1
f 205/15/1 206/16/1 207/10/1 208/9/1
f 209/15/1 210/16/1 211/10/1 212/9/1
f 213/19/1 214/22/1 215/23/1 216/24/1
f 217/8/1 218/7/1 219/18/1 220/17/1
f 221/7/1 222/25/1 223/26/1 224/18/1
f 225/15/1 226/16/1 227/10/1 228/9/1
f 229/15/1 230/16/1 231/10/1 232/9/1
f 233/15/1 234/16/1 235/10/1 236/9/1
f 237/15/1 238/16/1 239/10/1 240/9/1
f 241/15/1 242/16/1 243/10/1 244/9/1
f 245/15/1 246/16/1 247/10/1 248/9/1
f 249/15/1 250/16/1 251/10/1 252/9/1
f 253/1/1 254/2/1 255/3/1 256/4/1
f 257/6/1 258/27/1 259/25/1 260/7/1
f 261/15/1 262/16/1 263/10/1 264/9/1
f 265/15/1 266/16/1 267/10/1 268/9/1
f 269/15/1 270/16/1 271/10/1 272/9/1
f 273/15/1 274/16/1 275/10/1 276/9/1
f 277/19/1 278/22/1 279/23/1 280/24/1
f 281/15/1 282/16/1 283/10/1 284/9/1
f 285/16/1 286/17/1 287/13/1 288/10/1
f 289/15/1 290/16/1 291/10/1 292/9/1
f 293/15/1 294/16/1 295/10/1 296/9/1
f 297/15/1 298/16/1 299/10/1 300/9/1
f 301/15/1 302/16/1 303/10/1 304/9/1
f 305/15/1 306/16/1 307/10/1 308/9/1
f 309/15/1 310/16/1 311/10/1 312/9/1
f 313/15/1 314/16/1 315/10/1 316/9/1
f 317/1/1 318/2/1 319/3/1 320/4/1
f 321/6/1 322/27/1 323/25/1 324/7/1
f 325/15/1 326/16/1 327/10/1 328/9/1
f 329/15/1 330/16/1 331/10/1 332/9/1
f 333/15/1 334/16/1 335/10/1 336/9/1
f 337/15/1 338/16/1 339/10/1 340/9/1
f 341/19/1 342/22/1 343/23/1 344/24/1
f 345/15/1 346/16/1 347/10/1 348/9/1
f 349/19/1 350/22/1 351/23/1 352/24/1
f 353/15/1 354/16/1 355/10/1 356/9/1
f 357/15/1 358/16/1 359/10/1 360/9/1
f 361/15/1 362/16/1 363/10/1 364/9/1
f 365/15/1 366/16/1 367/10/1 368/9/1
f 369/15/1 370/16/1 371/10/1 372/9/1
f 373/15/1 374/16/1 375/10/1 376/9/1
f 377/15/1 378/16/1 379/10/1 380/9/1
f 381/1/1 382/2/1 383/3/1 384/4/1
f 385/6/1 386/27/1 387/25/1 388/7/1
f 389/15/1 390/16/1 391/10/1 392/9/1
f 393/15/1 394/16/1 395/10/1 396/9/1
f 397/15/1 398/16/1 399/10/1 400/9/1
f 401/15/1 402/16/1 403/10/1 404/9/1
f 405/19/1 406/22/1 407/23/1 408/24/1
f 409/15/1 410/16/1 411/10/1 412/9/1
f 413/16/1 414/17/1 415/13/1 416/10/1
f 417/15/1 418/16/1 419/10/1 420/9/1
f 421/15/1 422/16/1 423/10/1 424/9/1
f 425/15/1 426/16/1 427/10/1 428/9/1
f 429/15/1 430/16/1 431/10/1 432/9/1
f 433/15/1 434/16/1 435/10/1 436/9/1
f 437/15/1 438/16/1 439/10/1 440/9/1
f 441/15/1 442/16/1 443/10/1 444/9/1
f 445/1/1 446/2/1 447/3/1 448/4/1
f 449/6/1 450/27/1 451/25/1 452/7/1
f 453/15/1 454/16/1 455/10/1 456/9/1
f 457/15/1 458/16/1 459/10/1 460/9/1
f 461/15/1 462/16/1 463/10/1 464/9/1
f 465/15/1 466/16/1 467/10/1 468/9/1
f 469/16/1 470/17/1 471/13/1 472/10/1
f 473/15/1 474/16/1 475/10/1 476/9/1
f 477/18/1 478/26/1 479/22/1 480/19/1
f 481/7/1 482/25/1 483/26/1 484/18/1
f 485/15/1 486/16/1 487/10/1 488/9/1
f 489/15/1 490/16/1 491/10/1 492/9/1
f 493/15/1 494/16/1 495/10/1 496/9/1
f 497/15/1 498/16/1 499/10/1 500/9/1
f 501/15/1 502/16/1 503/10/1 504/9/1
f 505/15/1 506/16/1 507/10/1 508/9/1
f 509/1/1 510/2/1 511/3/1 512/4/1
f 513/4/1 514/3/1 515/16/1 516/15/1
f 517/15/1 518/16/1 519/10/1 520/9/1
f 521/15/1 522/16/1 523/10/1 524/9/1
f 525/15/1 526/16/1 527/10/1 528/9/1
f 529/15/1 530/16/1 531/10/1 532/9/1
f 533/19/1 534/22/1 535/23/1 536/24/1
f 537/7/1 538/25/1 539/26/1 540/18/1
f 541/15/1 542/16/1 543/10/1 544/9/1
f 545/16/1 546/17/1 547/13/1 548/10/1
f 549/15/1 550/16/1 551/10/1 552/9/1
f 553/15/1 554/16/1 555/10/1 556/9/1
f 557/15/1 558/16/1 559/10/1 560/9/1
f 561/15/1 562/16/1 563/10/1 564/9/1
f 565/15/1 566/16/1 567/10/1 568/9/1
f 569/15/1 570/16/1 571/10/1 572/9/1
f 573/1/1 574/2/1 575/3/1 576/4/1
f 577/1/1 578/2/1 579/3/1 580/4/1
f 581/3/1 582/8/1 583/17/1 584/16/1
f 585/4/1 586/3/1 587/16/1 588/15/1
f 589/15/1 590/16/1 591/10/1 592/9/1
f 593/15/1 594/16/1 595/10/1 596/9/1
f 597/16/1 598/17/1 599/13/1 600/10/1
f 601/16/1 602/17/1 603/13/1 604/10/1
f 605/15/1 606/16/1 607/10/1 608/9/1
f 609/19/1 610/22/1 611/23/1 612/24/1
f 613/13/1 614/19/1 615/24/1 616/14/1
f 617/15/1 618/16/1 619/10/1 620/9/1
f 621/15/1 622/16/1 623/10/1 624/9/1
f 625/15/1 626/16/1 627/10/1 628/9/1
f 629/4/1 630/3/1 631/16/1 632/15/1
f 633/3/1 634/8/1 635/17/1 636/16/1
f 637/1/1 638/2/1 639/3/1 640/4/1
f 641/1/1 642/2/1 643/3/1 644/4/1
f 645/2/1 646/5/1 647/8/1 648/3/1
f 649/20/1 650/21/1 651/2/1 652/1/1
f 653/3/1 654/8/1 655/17/1 656/16/1
f 657/4/1 658/3/1 659/16/1 660/15/1
f 661/19/1 662/22/1 663/23/1 664/24/1
f 665/19/1 666/22/1 667/23/1 668/24/1
f 669/13/1 670/19/1 671/24/1 672/14/1
f 673/19/1 674/22/1 675/23/1 676/24/1
f 677/16/1 678/17/1 679/13/1 680/10/1
f 681/15/1 682/16/1 683/10/1 684/9/1
f 685/4/1 686/3/1 687/16/1 688/15/1
f 689/3/1 690/8/1 691/17/1 692/16/1
f 693/20/1 694/21/1 695/2/1 696/1/1
f 697/21/1 698/28/1 699/5/1 700/2/1
f 701/1/1 702/2/1 703/3/1 704/4/1
f 705/1/1 706/2/1 707/3/1 708/4/1
f 709/29/1 710/30/1 711/21/1 712/20/1
f 713/30/1 714/31/1 715/28/1 716/21/1
f 717/21/1 718/28/1 719/5/1 720/2/1
f 721/20/1 722/21/1 723/2/1 724/1/1
f 725/3/1 726/8/1 727/17/1 728/16/1
f 729/4/1 730/3/1 731/16/1 732/15/1
f 733/19/1 734/22/1 735/23/1 736/24/1
f 737/19/1 738/22/1 739/23/1 740/24/1
f 741/4/1 742/3/1 743/16/1 744/15/1
f 745/3/1 746/8/1 747/17/1 748/16/1
f 749/20/1 750/21/1 751/2/1 752/1/1
f 753/2/1 754/5/1 755/8/1 756/3/1
f 757/21/1 758/28/1 759/5/1 760/2/1
f 761/2/1 762/5/1 763/8/1 764/3/1
f 765/1/1 766/2/1 767/3/1 768/4/1
f 769/1/1 770/2/1 771/3/1 772/4/1
f 773/32/1 774/33/1 775/30/1 776/29/1
f 777/33/1 778/34/1 779/31/1 780/30/1
f 781/2/1 782/5/1 783/8/1 784/3/1
f 785/29/1 786/30/1 787/21/1 788/20/1
f 789/30/1 790/31/1 791/28/1 792/21/1
f 793/20/1 794/21/1 795/2/1 796/1/1
f 797/3/1 798/8/1 799/17/1 800/16/1
f 801/3/1 802/8/1 803/17/1 804/16/1
f 805/20/1 806/21/1 807/2/1 808/1/1
f 809/21/1 810/28/1 811/5/1 812/2/1
f 813/2/1 814/5/1 815/8/1 816/3/1
f 817/29/1 818/30/1 819/21/1 820/20/1
f 821/30/1 822/31/1 823/28/1 824/21/1
f 825/21/1 826/28/1 827/5/1 828/2/1
f 829/1/1 830/2/1 831/3/1 832/4/1
f 833/1/1 834/2/1 835/3/1 836/4/1
f 837/35/1 838/36/1 839/33/1 840/32/1
f 841/36/1 842/37/1 843/34/1 844/33/1
f 845/21/1 846/28/1 847/5/1 848/2/1
f 849/32/1 850/33/1 851/30/1 852/29/1
f 853/33/1 854/34/1 855/31/1 856/30/1
f 857/28/1 858/38/1 859/6/1 860/5/1
f 861/38/1 862/39/1 863/27/1 864/6/1
f 865/28/1 866/38/1 867/6/1 868/5/1
f 869/38/1 870/39/1 871/27/1 872/6/1
f 873/28/1 874/38/1 875/6/1 876/5/1
f 877/38/1 878/39/1 879/27/1 880/6/1
f 881/32/1 882/33/1 883/30/1 884/29/1
f 885/33/1 886/34/1 887/31/1 888/30/1
f 889/2/1 890/5/1 891/8/1 892/3/1
f 893/1/1 894/2/1 895/3/1 896/4/1

