# Wavefront OBJ file automatically generated by Tiled2Unity

# Vertices (Count = 272)
v 0 -16 0
v -16 -16 0
v -16 0 0
v 0 0 0
v -32 -16 0
v -32 0 0
v -48 -16 0
v -48 0 0
v -64 -16 0
v -64 0 0
v -80 -16 0
v -80 0 0
v -96 -16 0
v -96 0 0
v -112 -16 0
v -112 0 0
v -128 -16 0
v -128 0 0
v -144 -16 0
v -144 0 0
v -160 -16 0
v -160 0 0
v -176 -16 0
v -176 0 0
v -192 -16 0
v -192 0 0
v -208 -16 0
v -208 0 0
v -224 -16 0
v -224 0 0
v -240 -16 0
v -240 0 0
v -256 -16 0
v -256 0 0
v -16 -48 0
v -32 -48 0
v -32 -32 0
v -16 -32 0
v -48 -48 0
v -48 -32 0
v -64 -48 0
v -64 -32 0
v -80 -48 0
v -80 -32 0
v -96 -48 0
v -96 -32 0
v -112 -48 0
v -112 -32 0
v -128 -48 0
v -128 -32 0
v -144 -48 0
v -144 -32 0
v -160 -48 0
v -160 -32 0
v -176 -48 0
v -176 -32 0
v -192 -48 0
v -192 -32 0
v -208 -48 0
v -208 -32 0
v -224 -48 0
v -224 -32 0
v -240 -48 0
v -240 -32 0
v -16 -64 0
v -32 -64 0
v -48 -64 0
v -64 -64 0
v -80 -64 0
v -96 -64 0
v -112 -64 0
v -128 -64 0
v -144 -64 0
v -160 -64 0
v -176 -64 0
v -192 -64 0
v -208 -64 0
v -224 -64 0
v -240 -64 0
v 0 -80 0
v -16 -80 0
v 0 -64 0
v -32 -80 0
v -48 -80 0
v -64 -80 0
v -80 -80 0
v -96 -80 0
v -112 -80 0
v -128 -80 0
v -144 -80 0
v -160 -80 0
v -176 -80 0
v -192 -80 0
v -208 -80 0
v -224 -80 0
v -240 -80 0
v 0 -96 0
v -16 -96 0
v -32 -96 0
v -48 -96 0
v -64 -96 0
v -80 -96 0
v -96 -96 0
v -112 -96 0
v -128 -96 0
v -144 -96 0
v -160 -96 0
v -176 -96 0
v -192 -96 0
v -208 -96 0
v -224 -96 0
v -240 -96 0
v 0 -112 0
v -16 -112 0
v -32 -112 0
v -48 -112 0
v -64 -112 0
v -80 -112 0
v -96 -112 0
v -112 -112 0
v -128 -112 0
v -144 -112 0
v -160 -112 0
v -176 -112 0
v -192 -112 0
v -208 -112 0
v -224 -112 0
v -240 -112 0
v 0 -128 0
v -16 -128 0
v -32 -128 0
v -48 -128 0
v -64 -128 0
v -80 -128 0
v -96 -128 0
v -112 -128 0
v -128 -128 0
v -144 -128 0
v -160 -128 0
v -176 -128 0
v -192 -128 0
v -208 -128 0
v -224 -128 0
v -240 -128 0
v -16 -144 0
v -32 -144 0
v -48 -144 0
v -64 -144 0
v -80 -144 0
v -96 -144 0
v -112 -144 0
v -128 -144 0
v -144 -144 0
v -160 -144 0
v -176 -144 0
v -192 -144 0
v -208 -144 0
v -224 -144 0
v -240 -144 0
v -16 -160 0
v -32 -160 0
v -48 -160 0
v -64 -160 0
v -80 -160 0
v -96 -160 0
v -112 -160 0
v -144 -160 0
v -160 -160 0
v -176 -160 0
v -192 -160 0
v -208 -160 0
v -16 -176 0
v -32 -176 0
v -48 -176 0
v -64 -176 0
v -80 -176 0
v -144 -176 0
v -160 -176 0
v -176 -176 0
v -224 -176 0
v -240 -176 0
v -240 -160 0
v -224 -160 0
v -256 -176 0
v -256 -160 0
v -16 -192 0
v -32 -192 0
v -48 -192 0
v -96 -192 0
v -112 -192 0
v -112 -176 0
v -96 -176 0
v -128 -192 0
v -128 -176 0
v -192 -192 0
v -208 -192 0
v -208 -176 0
v -192 -176 0
v -224 -192 0
v -240 -192 0
v -256 -192 0
v -64 -208 0
v -80 -208 0
v -80 -192 0
v -64 -192 0
v -96 -208 0
v -112 -208 0
v -128 -208 0
v -144 -208 0
v -160 -208 0
v -160 -192 0
v -144 -192 0
v -176 -208 0
v -176 -192 0
v -192 -208 0
v -208 -208 0
v 0 -224 0
v -16 -224 0
v -16 -208 0
v 0 -208 0
v -32 -224 0
v -32 -208 0
v -48 -224 0
v -48 -208 0
v -64 -224 0
v -80 -224 0
v -96 -224 0
v -112 -224 0
v -128 -224 0
v -224 -224 0
v -240 -224 0
v -240 -208 0
v -224 -208 0
v -256 -224 0
v -256 -208 0
v 0 -240 0
v -16 -240 0
v -32 -240 0
v -48 -240 0
v -64 -240 0
v -80 -240 0
v -96 -240 0
v -112 -240 0
v -128 -240 0
v -144 -240 0
v -144 -224 0
v -160 -240 0
v -160 -224 0
v -176 -240 0
v -176 -224 0
v -192 -240 0
v -192 -224 0
v -208 -240 0
v -208 -224 0
v -224 -240 0
v -240 -240 0
v -256 -240 0
v 0 -32 0
v -256 -32 0
v 0 -48 0
v -256 -48 0
v -256 -64 0
v -256 -80 0
v -256 -96 0
v -256 -112 0
v -256 -128 0
v 0 -144 0
v -256 -144 0
v 0 -160 0
v -128 -160 0
v 0 -176 0
v 0 -192 0

# Texture cooridinates (Count = 108)
vt 0.5715507 0.7501221
vt 0.7141637 0.7501221
vt 0.7141637 0.9998779
vt 0.5715507 0.9998779
vt 0.2858364 0.5001221
vt 0.4284494 0.5001221
vt 0.4284494 0.7498779
vt 0.2858364 0.7498779
vt 0.1429792 0.7501221
vt 0.2855922 0.7501221
vt 0.2855922 0.9998779
vt 0.1429792 0.9998779
vt 0.0001220703 0.7501221
vt 0.1427351 0.7501221
vt 0.1427351 0.9998779
vt 0.0001220703 0.9998779
vt 0.1429792 0.5001221
vt 0.2855922 0.5001221
vt 0.2855922 0.7498779
vt 0.1429792 0.7498779
vt 0.0001220703 0.5001221
vt 0.1427351 0.5001221
vt 0.1427351 0.7498779
vt 0.0001220703 0.7498779
vt 0.8572649 0.7501221
vt 0.9998779 0.7501221
vt 0.9998779 0.9998779
vt 0.8572649 0.9998779
vt 0.4286935 0.7501221
vt 0.5713065 0.7501221
vt 0.5713065 0.9998779
vt 0.4286935 0.9998779
vt 0.2858364 0.7501221
vt 0.4284494 0.7501221
vt 0.4284494 0.9998779
vt 0.2858364 0.9998779
vt 0.4286935 0.5001221
vt 0.5713065 0.5001221
vt 0.5713065 0.7498779
vt 0.4286935 0.7498779
vt 0.5715507 0.5001221
vt 0.7141637 0.5001221
vt 0.7141637 0.7498779
vt 0.5715507 0.7498779
vt 0.2858364 0.2501221
vt 0.4284494 0.2501221
vt 0.4284494 0.4998779
vt 0.2858364 0.4998779
vt 0.7144078 0.7501221
vt 0.8570208 0.7501221
vt 0.8570208 0.9998779
vt 0.7144078 0.9998779
vt 0.4286935 0.2501221
vt 0.5713065 0.2501221
vt 0.5713065 0.4998779
vt 0.4286935 0.4998779
vt 0.5715507 0.2501221
vt 0.7141637 0.2501221
vt 0.7141637 0.4998779
vt 0.5715507 0.4998779
vt 0.7144078 0.5001221
vt 0.8570208 0.5001221
vt 0.8570208 0.7498779
vt 0.7144078 0.7498779
vt 0.1429792 0.3334554
vt 0.2855922 0.3334554
vt 0.2855922 0.6665446
vt 0.1429792 0.6665446
vt 0.2858364 0.3334554
vt 0.4284494 0.3334554
vt 0.4284494 0.6665446
vt 0.2858364 0.6665446
vt 0.4286935 0.3334554
vt 0.5713065 0.3334554
vt 0.5713065 0.6665446
vt 0.4286935 0.6665446
vt 0.0001220703 0.6667888
vt 0.1427351 0.6667888
vt 0.1429792 0.6667888
vt 0.2855922 0.6667888
vt 0.2858364 0.6667888
vt 0.4284494 0.6667888
vt 0.4286935 0.6667888
vt 0.5713065 0.6667888
vt 0.5715507 0.6667888
vt 0.7141637 0.6667888
vt 0.5715507 0.0001220703
vt 0.7141637 0.0001220703
vt 0.7141637 0.3332113
vt 0.5715507 0.3332113
vt 0.7144078 0.6667888
vt 0.8570208 0.6667888
vt 0.7144078 0.3334554
vt 0.8570208 0.3334554
vt 0.8570208 0.6665446
vt 0.7144078 0.6665446
vt 0.7144078 0.0001220703
vt 0.8570208 0.0001220703
vt 0.8570208 0.3332113
vt 0.7144078 0.3332113
vt 0.0001220703 0.3334554
vt 0.1427351 0.3334554
vt 0.1427351 0.6665446
vt 0.0001220703 0.6665446
vt 0.5715507 0.3334554
vt 0.7141637 0.3334554
vt 0.7141637 0.6665446
vt 0.5715507 0.6665446

# Normal
vn 0 0 -1

# Groups (Count = 1)

g mesh_0001
f 1/1/1 2/2/1 3/3/1 4/4/1
f 2/1/1 5/2/1 6/3/1 3/4/1
f 5/1/1 7/2/1 8/3/1 6/4/1
f 7/5/1 9/6/1 10/7/1 8/8/1
f 9/1/1 11/2/1 12/3/1 10/4/1
f 11/1/1 13/2/1 14/3/1 12/4/1
f 13/1/1 15/2/1 16/3/1 14/4/1
f 15/1/1 17/2/1 18/3/1 16/4/1
f 17/5/1 19/6/1 20/7/1 18/8/1
f 19/5/1 21/6/1 22/7/1 20/8/1
f 21/1/1 23/2/1 24/3/1 22/4/1
f 23/1/1 25/2/1 26/3/1 24/4/1
f 25/1/1 27/2/1 28/3/1 26/4/1
f 27/1/1 29/2/1 30/3/1 28/4/1
f 29/1/1 31/2/1 32/3/1 30/4/1
f 31/5/1 33/6/1 34/7/1 32/8/1
f 35/9/1 36/10/1 37/11/1 38/12/1
f 36/13/1 39/14/1 40/15/1 37/16/1
f 39/9/1 41/10/1 42/11/1 40/12/1
f 41/13/1 43/14/1 44/15/1 42/16/1
f 43/9/1 45/10/1 46/11/1 44/12/1
f 45/13/1 47/14/1 48/15/1 46/16/1
f 47/9/1 49/10/1 50/11/1 48/12/1
f 49/13/1 51/14/1 52/15/1 50/16/1
f 51/9/1 53/10/1 54/11/1 52/12/1
f 53/13/1 55/14/1 56/15/1 54/16/1
f 55/9/1 57/10/1 58/11/1 56/12/1
f 57/13/1 59/14/1 60/15/1 58/16/1
f 59/9/1 61/10/1 62/11/1 60/12/1
f 61/13/1 63/14/1 64/15/1 62/16/1
f 65/17/1 66/18/1 36/19/1 35/20/1
f 66/21/1 67/22/1 39/23/1 36/24/1
f 67/17/1 68/18/1 41/19/1 39/20/1
f 68/21/1 69/22/1 43/23/1 41/24/1
f 69/17/1 70/18/1 45/19/1 43/20/1
f 70/21/1 71/22/1 47/23/1 45/24/1
f 71/17/1 72/18/1 49/19/1 47/20/1
f 72/21/1 73/22/1 51/23/1 49/24/1
f 73/17/1 74/18/1 53/19/1 51/20/1
f 74/21/1 75/22/1 55/23/1 53/24/1
f 75/17/1 76/18/1 57/19/1 55/20/1
f 76/21/1 77/22/1 59/23/1 57/24/1
f 77/17/1 78/18/1 61/19/1 59/20/1
f 78/21/1 79/22/1 63/23/1 61/24/1
f 80/25/1 81/26/1 65/27/1 82/28/1
f 81/17/1 83/18/1 66/19/1 65/20/1
f 83/21/1 84/22/1 67/23/1 66/24/1
f 84/17/1 85/18/1 68/19/1 67/20/1
f 85/21/1 86/22/1 69/23/1 68/24/1
f 86/17/1 87/18/1 70/19/1 69/20/1
f 87/21/1 88/22/1 71/23/1 70/24/1
f 88/17/1 89/18/1 72/19/1 71/20/1
f 89/21/1 90/22/1 73/23/1 72/24/1
f 90/17/1 91/18/1 74/19/1 73/20/1
f 91/21/1 92/22/1 75/23/1 74/24/1
f 92/17/1 93/18/1 76/19/1 75/20/1
f 93/21/1 94/22/1 77/23/1 76/24/1
f 94/17/1 95/18/1 78/19/1 77/20/1
f 95/21/1 96/22/1 79/23/1 78/24/1
f 97/25/1 98/26/1 81/27/1 80/28/1
f 98/17/1 99/18/1 83/19/1 81/20/1
f 99/21/1 100/22/1 84/23/1 83/24/1
f 100/17/1 101/18/1 85/19/1 84/20/1
f 101/21/1 102/22/1 86/23/1 85/24/1
f 102/17/1 103/18/1 87/19/1 86/20/1
f 103/21/1 104/22/1 88/23/1 87/24/1
f 104/17/1 105/18/1 89/19/1 88/20/1
f 105/21/1 106/22/1 90/23/1 89/24/1
f 106/17/1 107/18/1 91/19/1 90/20/1
f 107/21/1 108/22/1 92/23/1 91/24/1
f 108/17/1 109/18/1 93/19/1 92/20/1
f 109/21/1 110/22/1 94/23/1 93/24/1
f 110/17/1 111/18/1 95/19/1 94/20/1
f 111/21/1 112/22/1 96/23/1 95/24/1
f 113/25/1 114/26/1 98/27/1 97/28/1
f 114/17/1 115/18/1 99/19/1 98/20/1
f 115/21/1 116/22/1 100/23/1 99/24/1
f 116/17/1 117/18/1 101/19/1 100/20/1
f 117/21/1 118/22/1 102/23/1 101/24/1
f 118/17/1 119/18/1 103/19/1 102/20/1
f 119/21/1 120/22/1 104/23/1 103/24/1
f 120/17/1 121/18/1 105/19/1 104/20/1
f 121/21/1 122/22/1 106/23/1 105/24/1
f 122/17/1 123/18/1 107/19/1 106/20/1
f 123/21/1 124/22/1 108/23/1 107/24/1
f 124/17/1 125/18/1 109/19/1 108/20/1
f 125/21/1 126/22/1 110/23/1 109/24/1
f 126/17/1 127/18/1 111/19/1 110/20/1
f 127/21/1 128/22/1 112/23/1 111/24/1
f 129/25/1 130/26/1 114/27/1 113/28/1
f 130/17/1 131/18/1 115/19/1 114/20/1
f 131/21/1 132/22/1 116/23/1 115/24/1
f 132/17/1 133/18/1 117/19/1 116/20/1
f 133/21/1 134/22/1 118/23/1 117/24/1
f 134/17/1 135/18/1 119/19/1 118/20/1
f 135/21/1 136/22/1 120/23/1 119/24/1
f 136/17/1 137/18/1 121/19/1 120/20/1
f 137/21/1 138/22/1 122/23/1 121/24/1
f 138/17/1 139/18/1 123/19/1 122/20/1
f 139/21/1 140/22/1 124/23/1 123/24/1
f 140/17/1 141/18/1 125/19/1 124/20/1
f 141/21/1 142/22/1 126/23/1 125/24/1
f 142/17/1 143/18/1 127/19/1 126/20/1
f 143/21/1 144/22/1 128/23/1 127/24/1
f 145/17/1 146/18/1 131/19/1 130/20/1
f 146/21/1 147/22/1 132/23/1 131/24/1
f 147/17/1 148/18/1 133/19/1 132/20/1
f 148/21/1 149/22/1 134/23/1 133/24/1
f 149/17/1 150/18/1 135/19/1 134/20/1
f 150/21/1 151/22/1 136/23/1 135/24/1
f 151/17/1 152/18/1 137/19/1 136/20/1
f 152/21/1 153/22/1 138/23/1 137/24/1
f 153/17/1 154/18/1 139/19/1 138/20/1
f 154/21/1 155/22/1 140/23/1 139/24/1
f 155/17/1 156/18/1 141/19/1 140/20/1
f 156/21/1 157/22/1 142/23/1 141/24/1
f 157/17/1 158/18/1 143/19/1 142/20/1
f 158/21/1 159/22/1 144/23/1 143/24/1
f 160/17/1 161/18/1 146/19/1 145/20/1
f 161/21/1 162/22/1 147/23/1 146/24/1
f 162/17/1 163/18/1 148/19/1 147/20/1
f 163/21/1 164/22/1 149/23/1 148/24/1
f 164/17/1 165/18/1 150/19/1 149/20/1
f 165/21/1 166/22/1 151/23/1 150/24/1
f 167/17/1 168/18/1 154/19/1 153/20/1
f 168/21/1 169/22/1 155/23/1 154/24/1
f 169/17/1 170/18/1 156/19/1 155/20/1
f 170/21/1 171/22/1 157/23/1 156/24/1
f 172/17/1 173/18/1 161/19/1 160/20/1
f 173/21/1 174/22/1 162/23/1 161/24/1
f 174/17/1 175/18/1 163/19/1 162/20/1
f 175/21/1 176/22/1 164/23/1 163/24/1
f 177/17/1 178/18/1 168/19/1 167/20/1
f 178/21/1 179/22/1 169/23/1 168/24/1
f 180/29/1 181/30/1 182/31/1 183/32/1
f 181/29/1 184/30/1 185/31/1 182/32/1
f 186/17/1 187/18/1 173/19/1 172/20/1
f 187/21/1 188/22/1 174/23/1 173/24/1
f 189/33/1 190/34/1 191/35/1 192/36/1
f 190/33/1 193/34/1 194/35/1 191/36/1
f 195/29/1 196/30/1 197/31/1 198/32/1
f 199/37/1 200/38/1 181/39/1 180/40/1
f 200/41/1 201/42/1 184/43/1 181/44/1
f 202/29/1 203/30/1 204/31/1 205/32/1
f 203/29/1 206/30/1 189/31/1 204/32/1
f 206/45/1 207/46/1 190/47/1 189/48/1
f 207/45/1 208/46/1 193/47/1 190/48/1
f 209/29/1 210/30/1 211/31/1 212/32/1
f 210/29/1 213/30/1 214/31/1 211/32/1
f 213/29/1 215/30/1 195/31/1 214/32/1
f 215/41/1 216/42/1 196/43/1 195/44/1
f 217/29/1 218/30/1 219/31/1 220/32/1
f 218/33/1 221/34/1 222/35/1 219/36/1
f 221/29/1 223/30/1 224/31/1 222/32/1
f 225/37/1 226/38/1 203/39/1 202/40/1
f 226/41/1 227/42/1 206/43/1 203/44/1
f 227/45/1 228/46/1 207/47/1 206/48/1
f 228/45/1 229/46/1 208/47/1 207/48/1
f 230/29/1 231/30/1 232/31/1 233/32/1
f 231/29/1 234/30/1 235/31/1 232/32/1
f 236/49/1 237/50/1 218/51/1 217/52/1
f 237/45/1 238/46/1 221/47/1 218/48/1
f 238/49/1 239/50/1 223/51/1 221/52/1
f 240/53/1 241/54/1 226/55/1 225/56/1
f 241/57/1 242/58/1 227/59/1 226/60/1
f 242/45/1 243/46/1 228/47/1 227/48/1
f 243/45/1 244/46/1 229/47/1 228/48/1
f 244/29/1 245/30/1 246/31/1 229/32/1
f 245/29/1 247/30/1 248/31/1 246/32/1
f 247/29/1 249/30/1 250/31/1 248/32/1
f 249/29/1 251/30/1 252/31/1 250/32/1
f 251/29/1 253/30/1 254/31/1 252/32/1
f 255/49/1 256/50/1 231/51/1 230/52/1
f 256/61/1 257/62/1 234/63/1 231/64/1

g mesh_0002
f 258/65/1 38/66/1 2/67/1 1/68/1
f 38/69/1 37/70/1 5/71/1 2/72/1
f 37/73/1 40/74/1 7/75/1 5/76/1
f 40/77/1 42/78/1 9/15/1 7/16/1
f 42/77/1 44/78/1 11/15/1 9/16/1
f 44/79/1 46/80/1 13/11/1 11/12/1
f 46/81/1 48/82/1 15/35/1 13/36/1
f 48/83/1 50/84/1 17/31/1 15/32/1
f 50/65/1 52/66/1 19/67/1 17/68/1
f 52/73/1 54/74/1 21/75/1 19/76/1
f 54/77/1 56/78/1 23/15/1 21/16/1
f 56/77/1 58/78/1 25/15/1 23/16/1
f 58/65/1 60/66/1 27/67/1 25/68/1
f 60/69/1 62/70/1 29/71/1 27/72/1
f 62/73/1 64/74/1 31/75/1 29/76/1
f 64/77/1 259/78/1 33/15/1 31/16/1
f 260/85/1 35/86/1 38/3/1 258/4/1
f 63/85/1 261/86/1 259/3/1 64/4/1
f 82/87/1 65/88/1 35/89/1 260/90/1
f 79/87/1 262/88/1 261/89/1 63/90/1
f 96/91/1 263/92/1 262/51/1 79/52/1
f 112/93/1 264/94/1 263/95/1 96/96/1
f 128/97/1 265/98/1 264/99/1 112/100/1
f 144/77/1 266/78/1 265/15/1 128/16/1
f 267/77/1 145/78/1 130/15/1 129/16/1
f 159/77/1 268/78/1 266/15/1 144/16/1
f 269/91/1 160/92/1 145/51/1 267/52/1
f 166/65/1 270/66/1 152/67/1 151/68/1
f 270/73/1 167/74/1 153/75/1 152/76/1
f 171/65/1 183/66/1 158/67/1 157/68/1
f 183/69/1 182/70/1 159/71/1 158/72/1
f 182/73/1 185/74/1 268/75/1 159/76/1
f 271/97/1 172/98/1 160/99/1 269/100/1
f 176/79/1 192/80/1 165/11/1 164/12/1
f 192/83/1 191/84/1 166/31/1 165/32/1
f 191/77/1 194/78/1 270/15/1 166/16/1
f 194/85/1 177/86/1 167/3/1 270/4/1
f 179/79/1 198/80/1 170/11/1 169/12/1
f 198/83/1 197/84/1 171/31/1 170/32/1
f 197/85/1 180/86/1 183/3/1 171/4/1
f 272/77/1 186/78/1 172/15/1 271/16/1
f 188/79/1 205/80/1 175/11/1 174/12/1
f 205/83/1 204/84/1 176/31/1 175/32/1
f 204/101/1 189/102/1 192/103/1 176/104/1
f 193/105/1 212/106/1 177/107/1 194/108/1
f 212/79/1 211/80/1 178/11/1 177/12/1
f 211/83/1 214/84/1 179/31/1 178/32/1
f 214/101/1 195/102/1 198/103/1 179/104/1
f 196/87/1 199/88/1 180/89/1 197/90/1
f 220/79/1 219/80/1 186/11/1 272/12/1
f 219/83/1 222/84/1 187/31/1 186/32/1
f 222/101/1 224/102/1 188/103/1 187/104/1
f 224/85/1 202/86/1 205/3/1 188/4/1
f 208/105/1 209/106/1 212/107/1 193/108/1
f 216/85/1 233/86/1 199/3/1 196/4/1
f 233/65/1 232/66/1 200/67/1 199/68/1
f 232/69/1 235/70/1 201/71/1 200/72/1
f 223/87/1 225/88/1 202/89/1 224/90/1
f 229/87/1 246/88/1 209/89/1 208/90/1
f 246/65/1 248/66/1 210/67/1 209/68/1
f 248/69/1 250/70/1 213/71/1 210/72/1
f 250/69/1 252/70/1 215/71/1 213/72/1
f 252/73/1 254/74/1 216/75/1 215/76/1
f 254/105/1 230/106/1 233/107/1 216/108/1
f 239/91/1 240/92/1 225/51/1 223/52/1
f 253/105/1 255/106/1 230/107/1 254/108/1

g mesh_0003
f 258/79/1 38/80/1 2/11/1 1/12/1
f 38/81/1 37/82/1 5/35/1 2/36/1
f 37/83/1 40/84/1 7/31/1 5/32/1
f 40/101/1 42/102/1 9/103/1 7/104/1
f 42/101/1 44/102/1 11/103/1 9/104/1
f 44/79/1 46/80/1 13/11/1 11/12/1
f 46/81/1 48/82/1 15/35/1 13/36/1
f 48/83/1 50/84/1 17/31/1 15/32/1
f 50/79/1 52/80/1 19/11/1 17/12/1
f 52/83/1 54/84/1 21/31/1 19/32/1
f 54/101/1 56/102/1 23/103/1 21/104/1
f 56/77/1 58/78/1 25/15/1 23/16/1
f 58/79/1 60/80/1 27/11/1 25/12/1
f 60/81/1 62/82/1 29/35/1 27/36/1
f 62/83/1 64/84/1 31/31/1 29/32/1
f 64/101/1 259/102/1 33/103/1 31/104/1
f 260/85/1 35/86/1 38/3/1 258/4/1
f 63/85/1 261/86/1 259/3/1 64/4/1
f 82/87/1 65/88/1 35/89/1 260/90/1
f 79/87/1 262/88/1 261/89/1 63/90/1
f 96/85/1 263/86/1 262/3/1 79/4/1
f 112/105/1 264/106/1 263/107/1 96/108/1
f 128/87/1 265/88/1 264/89/1 112/90/1
f 144/101/1 266/102/1 265/103/1 128/104/1
f 267/101/1 145/102/1 130/103/1 129/104/1
f 159/77/1 268/78/1 266/15/1 144/16/1
f 269/85/1 160/86/1 145/3/1 267/4/1
f 166/79/1 270/80/1 152/11/1 151/12/1
f 270/83/1 167/84/1 153/31/1 152/32/1
f 171/79/1 183/80/1 158/11/1 157/12/1
f 183/81/1 182/82/1 159/35/1 158/36/1
f 182/83/1 185/84/1 268/31/1 159/32/1
f 271/87/1 172/88/1 160/89/1 269/90/1
f 176/79/1 192/80/1 165/11/1 164/12/1
f 192/83/1 191/84/1 166/31/1 165/32/1
f 191/101/1 194/102/1 270/103/1 166/104/1
f 194/85/1 177/86/1 167/3/1 270/4/1
f 179/79/1 198/80/1 170/11/1 169/12/1
f 198/83/1 197/84/1 171/31/1 170/32/1
f 197/91/1 180/92/1 183/51/1 171/52/1
f 272/77/1 186/78/1 172/15/1 271/16/1
f 188/65/1 205/66/1 175/67/1 174/68/1
f 205/73/1 204/74/1 176/75/1 175/76/1
f 204/77/1 189/78/1 192/15/1 176/16/1
f 193/105/1 212/106/1 177/107/1 194/108/1
f 212/65/1 211/66/1 178/67/1 177/68/1
f 211/73/1 214/74/1 179/75/1 178/76/1
f 214/77/1 195/78/1 198/15/1 179/16/1
f 196/97/1 199/98/1 180/99/1 197/100/1
f 220/65/1 219/66/1 186/67/1 272/68/1
f 219/73/1 222/74/1 187/75/1 186/76/1
f 222/77/1 224/78/1 188/15/1 187/16/1
f 224/85/1 202/86/1 205/3/1 188/4/1
f 208/105/1 209/106/1 212/107/1 193/108/1
f 216/85/1 233/86/1 199/3/1 196/4/1
f 233/79/1 232/80/1 200/11/1 199/12/1
f 232/81/1 235/82/1 201/35/1 200/36/1
f 223/87/1 225/88/1 202/89/1 224/90/1
f 229/87/1 246/88/1 209/89/1 208/90/1
f 246/79/1 248/80/1 210/11/1 209/12/1
f 248/81/1 250/82/1 213/35/1 210/36/1
f 250/81/1 252/82/1 215/35/1 213/36/1
f 252/83/1 254/84/1 216/31/1 215/32/1
f 254/105/1 230/106/1 233/107/1 216/108/1
f 239/85/1 240/86/1 225/3/1 223/4/1
f 253/105/1 255/106/1 230/107/1 254/108/1

g mesh_0004
f 258/79/1 38/80/1 2/11/1 1/12/1
f 38/81/1 37/82/1 5/35/1 2/36/1
f 37/83/1 40/84/1 7/31/1 5/32/1
f 40/77/1 42/78/1 9/15/1 7/16/1
f 42/77/1 44/78/1 11/15/1 9/16/1
f 44/65/1 46/66/1 13/67/1 11/68/1
f 46/69/1 48/70/1 15/71/1 13/72/1
f 48/73/1 50/74/1 17/75/1 15/76/1
f 50/79/1 52/80/1 19/11/1 17/12/1
f 52/83/1 54/84/1 21/31/1 19/32/1
f 54/77/1 56/78/1 23/15/1 21/16/1
f 56/101/1 58/102/1 25/103/1 23/104/1
f 58/79/1 60/80/1 27/11/1 25/12/1
f 60/81/1 62/82/1 29/35/1 27/36/1
f 62/83/1 64/84/1 31/31/1 29/32/1
f 64/77/1 259/78/1 33/15/1 31/16/1
f 260/91/1 35/92/1 38/51/1 258/52/1
f 63/91/1 261/92/1 259/51/1 64/52/1
f 82/97/1 65/98/1 35/99/1 260/100/1
f 79/97/1 262/98/1 261/99/1 63/100/1
f 96/85/1 263/86/1 262/3/1 79/4/1
f 112/105/1 264/106/1 263/107/1 96/108/1
f 128/87/1 265/88/1 264/89/1 112/90/1
f 144/77/1 266/78/1 265/15/1 128/16/1
f 267/77/1 145/78/1 130/15/1 129/16/1
f 159/101/1 268/102/1 266/103/1 144/104/1
f 269/85/1 160/86/1 145/3/1 267/4/1
f 166/79/1 270/80/1 152/11/1 151/12/1
f 270/83/1 167/84/1 153/31/1 152/32/1
f 171/79/1 183/80/1 158/11/1 157/12/1
f 183/81/1 182/82/1 159/35/1 158/36/1
f 182/83/1 185/84/1 268/31/1 159/32/1
f 271/87/1 172/88/1 160/89/1 269/90/1
f 176/65/1 192/66/1 165/67/1 164/68/1
f 192/73/1 191/74/1 166/75/1 165/76/1
f 191/77/1 194/78/1 270/15/1 166/16/1
f 194/91/1 177/92/1 167/51/1 270/52/1
f 179/65/1 198/66/1 170/67/1 169/68/1
f 198/73/1 197/74/1 171/75/1 170/76/1
f 197/85/1 180/86/1 183/3/1 171/4/1
f 272/101/1 186/102/1 172/103/1 271/104/1
f 188/79/1 205/80/1 175/11/1 174/12/1
f 205/83/1 204/84/1 176/31/1 175/32/1
f 204/77/1 189/78/1 192/15/1 176/16/1
f 193/93/1 212/94/1 177/95/1 194/96/1
f 212/79/1 211/80/1 178/11/1 177/12/1
f 211/83/1 214/84/1 179/31/1 178/32/1
f 214/77/1 195/78/1 198/15/1 179/16/1
f 196/87/1 199/88/1 180/89/1 197/90/1
f 220/79/1 219/80/1 186/11/1 272/12/1
f 219/83/1 222/84/1 187/31/1 186/32/1
f 222/77/1 224/78/1 188/15/1 187/16/1
f 224/91/1 202/92/1 205/51/1 188/52/1
f 208/93/1 209/94/1 212/95/1 193/96/1
f 216/91/1 233/92/1 199/51/1 196/52/1
f 233/79/1 232/80/1 200/11/1 199/12/1
f 232/81/1 235/82/1 201/35/1 200/36/1
f 223/97/1 225/98/1 202/99/1 224/100/1
f 229/97/1 246/98/1 209/99/1 208/100/1
f 246/79/1 248/80/1 210/11/1 209/12/1
f 248/81/1 250/82/1 213/35/1 210/36/1
f 250/81/1 252/82/1 215/35/1 213/36/1
f 252/83/1 254/84/1 216/31/1 215/32/1
f 254/93/1 230/94/1 233/95/1 216/96/1
f 239/85/1 240/86/1 225/3/1 223/4/1
f 253/93/1 255/94/1 230/95/1 254/96/1

