# Tiled2Unity generated file. Do not modify by hand.
# Wavefront file for 'RedDragon-WithSlopes_mesh_0003.obj'

# Vertices (Count = 72)
v -224 -80 0
v -240 -80 0
v -240 -64 0
v -224 -64 0
v -208 -96 0
v -224 -96 0
v -224 -80 0
v -208 -80 0
v -224 -96 0
v -240 -96 0
v -240 -80 0
v -224 -80 0
v -208 -112 0
v -224 -112 0
v -224 -96 0
v -208 -96 0
v -48 -160 0
v -64 -160 0
v -64 -144 0
v -48 -144 0
v -192 -160 0
v -208 -160 0
v -208 -144 0
v -192 -144 0
v -48 -176 0
v -64 -176 0
v -64 -160 0
v -48 -160 0
v -64 -176 0
v -80 -176 0
v -80 -160 0
v -64 -160 0
v -176 -176 0
v -192 -176 0
v -192 -160 0
v -176 -160 0
v -192 -176 0
v -208 -176 0
v -208 -160 0
v -192 -160 0
v -64 -192 0
v -80 -192 0
v -80 -176 0
v -64 -176 0
v -80 -192 0
v -96 -192 0
v -96 -176 0
v -80 -176 0
v -160 -192 0
v -176 -192 0
v -176 -176 0
v -160 -176 0
v -176 -192 0
v -192 -192 0
v -192 -176 0
v -176 -176 0
v -80 -208 0
v -96 -208 0
v -96 -192 0
v -80 -192 0
v -96 -208 0
v -112 -208 0
v -112 -192 0
v -96 -192 0
v -144 -208 0
v -160 -208 0
v -160 -192 0
v -144 -192 0
v -160 -208 0
v -176 -208 0
v -176 -192 0
v -160 -192 0

# Texture cooridinates (Count = 10)
vt 0 0.375
vt 0.125 0.375
vt 0.125 0.5
vt 0 0.5
vt 0.25 0.375
vt 0.25 0.5
vt 0.375 0.375
vt 0.5 0.375
vt 0.5 0.5
vt 0.375 0.5

# Normal
vn 0 0 -1

# Mesh description
g RedDragon-WithSlopes_mesh_0003

# Faces
f 1/1/1 2/2/1 3/3/1 4/4/1
f 5/1/1 6/2/1 7/3/1 8/4/1
f 9/2/1 10/5/1 11/6/1 12/3/1
f 13/2/1 14/5/1 15/6/1 16/3/1
f 17/7/1 18/8/1 19/9/1 20/10/1
f 21/1/1 22/2/1 23/3/1 24/4/1
f 25/5/1 26/7/1 27/10/1 28/6/1
f 29/7/1 30/8/1 31/9/1 32/10/1
f 33/1/1 34/2/1 35/3/1 36/4/1
f 37/2/1 38/5/1 39/6/1 40/3/1
f 41/5/1 42/7/1 43/10/1 44/6/1
f 45/7/1 46/8/1 47/9/1 48/10/1
f 49/1/1 50/2/1 51/3/1 52/4/1
f 53/2/1 54/5/1 55/6/1 56/3/1
f 57/5/1 58/7/1 59/10/1 60/6/1
f 61/7/1 62/8/1 63/9/1 64/10/1
f 65/1/1 66/2/1 67/3/1 68/4/1
f 69/2/1 70/5/1 71/6/1 72/3/1

