# Tiled2Unity generated file. Do not modify by hand.
# Wavefront file for 'RedDragon-WithSlopes_mesh_0001.obj'

# Vertices (Count = 896)
v 0 -16 0
v -16 -16 0
v -16 0 0
v 0 0 0
v -16 -16 0
v -32 -16 0
v -32 0 0
v -16 0 0
v -32 -16 0
v -48 -16 0
v -48 0 0
v -32 0 0
v -48 -16 0
v -64 -16 0
v -64 0 0
v -48 0 0
v -64 -16 0
v -80 -16 0
v -80 0 0
v -64 0 0
v -80 -16 0
v -96 -16 0
v -96 0 0
v -80 0 0
v -96 -16 0
v -112 -16 0
v -112 0 0
v -96 0 0
v -112 -16 0
v -128 -16 0
v -128 0 0
v -112 0 0
v -128 -16 0
v -144 -16 0
v -144 0 0
v -128 0 0
v -144 -16 0
v -160 -16 0
v -160 0 0
v -144 0 0
v -160 -16 0
v -176 -16 0
v -176 0 0
v -160 0 0
v -176 -16 0
v -192 -16 0
v -192 0 0
v -176 0 0
v -192 -16 0
v -208 -16 0
v -208 0 0
v -192 0 0
v -208 -16 0
v -224 -16 0
v -224 0 0
v -208 0 0
v -224 -16 0
v -240 -16 0
v -240 0 0
v -224 0 0
v -240 -16 0
v -256 -16 0
v -256 0 0
v -240 0 0
v 0 -32 0
v -16 -32 0
v -16 -16 0
v 0 -16 0
v -16 -32 0
v -32 -32 0
v -32 -16 0
v -16 -16 0
v -32 -32 0
v -48 -32 0
v -48 -16 0
v -32 -16 0
v -48 -32 0
v -64 -32 0
v -64 -16 0
v -48 -16 0
v -64 -32 0
v -80 -32 0
v -80 -16 0
v -64 -16 0
v -80 -32 0
v -96 -32 0
v -96 -16 0
v -80 -16 0
v -96 -32 0
v -112 -32 0
v -112 -16 0
v -96 -16 0
v -112 -32 0
v -128 -32 0
v -128 -16 0
v -112 -16 0
v -128 -32 0
v -144 -32 0
v -144 -16 0
v -128 -16 0
v -144 -32 0
v -160 -32 0
v -160 -16 0
v -144 -16 0
v -160 -32 0
v -176 -32 0
v -176 -16 0
v -160 -16 0
v -176 -32 0
v -192 -32 0
v -192 -16 0
v -176 -16 0
v -192 -32 0
v -208 -32 0
v -208 -16 0
v -192 -16 0
v -208 -32 0
v -224 -32 0
v -224 -16 0
v -208 -16 0
v -224 -32 0
v -240 -32 0
v -240 -16 0
v -224 -16 0
v -240 -32 0
v -256 -32 0
v -256 -16 0
v -240 -16 0
v 0 -48 0
v -16 -48 0
v -16 -32 0
v 0 -32 0
v -16 -48 0
v -32 -48 0
v -32 -32 0
v -16 -32 0
v -32 -48 0
v -48 -48 0
v -48 -32 0
v -32 -32 0
v -48 -48 0
v -64 -48 0
v -64 -32 0
v -48 -32 0
v -64 -48 0
v -80 -48 0
v -80 -32 0
v -64 -32 0
v -80 -48 0
v -96 -48 0
v -96 -32 0
v -80 -32 0
v -96 -48 0
v -112 -48 0
v -112 -32 0
v -96 -32 0
v -112 -48 0
v -128 -48 0
v -128 -32 0
v -112 -32 0
v -128 -48 0
v -144 -48 0
v -144 -32 0
v -128 -32 0
v -144 -48 0
v -160 -48 0
v -160 -32 0
v -144 -32 0
v -160 -48 0
v -176 -48 0
v -176 -32 0
v -160 -32 0
v -176 -48 0
v -192 -48 0
v -192 -32 0
v -176 -32 0
v -192 -48 0
v -208 -48 0
v -208 -32 0
v -192 -32 0
v -208 -48 0
v -224 -48 0
v -224 -32 0
v -208 -32 0
v -224 -48 0
v -240 -48 0
v -240 -32 0
v -224 -32 0
v -240 -48 0
v -256 -48 0
v -256 -32 0
v -240 -32 0
v 0 -64 0
v -16 -64 0
v -16 -48 0
v 0 -48 0
v -16 -64 0
v -32 -64 0
v -32 -48 0
v -16 -48 0
v -32 -64 0
v -48 -64 0
v -48 -48 0
v -32 -48 0
v -48 -64 0
v -64 -64 0
v -64 -48 0
v -48 -48 0
v -64 -64 0
v -80 -64 0
v -80 -48 0
v -64 -48 0
v -80 -64 0
v -96 -64 0
v -96 -48 0
v -80 -48 0
v -96 -64 0
v -112 -64 0
v -112 -48 0
v -96 -48 0
v -112 -64 0
v -128 -64 0
v -128 -48 0
v -112 -48 0
v -128 -64 0
v -144 -64 0
v -144 -48 0
v -128 -48 0
v -144 -64 0
v -160 -64 0
v -160 -48 0
v -144 -48 0
v -160 -64 0
v -176 -64 0
v -176 -48 0
v -160 -48 0
v -176 -64 0
v -192 -64 0
v -192 -48 0
v -176 -48 0
v -192 -64 0
v -208 -64 0
v -208 -48 0
v -192 -48 0
v -208 -64 0
v -224 -64 0
v -224 -48 0
v -208 -48 0
v -224 -64 0
v -240 -64 0
v -240 -48 0
v -224 -48 0
v -240 -64 0
v -256 -64 0
v -256 -48 0
v -240 -48 0
v 0 -80 0
v -16 -80 0
v -16 -64 0
v 0 -64 0
v -16 -80 0
v -32 -80 0
v -32 -64 0
v -16 -64 0
v -32 -80 0
v -48 -80 0
v -48 -64 0
v -32 -64 0
v -48 -80 0
v -64 -80 0
v -64 -64 0
v -48 -64 0
v -64 -80 0
v -80 -80 0
v -80 -64 0
v -64 -64 0
v -80 -80 0
v -96 -80 0
v -96 -64 0
v -80 -64 0
v -96 -80 0
v -112 -80 0
v -112 -64 0
v -96 -64 0
v -112 -80 0
v -128 -80 0
v -128 -64 0
v -112 -64 0
v -128 -80 0
v -144 -80 0
v -144 -64 0
v -128 -64 0
v -144 -80 0
v -160 -80 0
v -160 -64 0
v -144 -64 0
v -160 -80 0
v -176 -80 0
v -176 -64 0
v -160 -64 0
v -176 -80 0
v -192 -80 0
v -192 -64 0
v -176 -64 0
v -192 -80 0
v -208 -80 0
v -208 -64 0
v -192 -64 0
v -208 -80 0
v -224 -80 0
v -224 -64 0
v -208 -64 0
v -224 -80 0
v -240 -80 0
v -240 -64 0
v -224 -64 0
v -240 -80 0
v -256 -80 0
v -256 -64 0
v -240 -64 0
v 0 -96 0
v -16 -96 0
v -16 -80 0
v 0 -80 0
v -16 -96 0
v -32 -96 0
v -32 -80 0
v -16 -80 0
v -32 -96 0
v -48 -96 0
v -48 -80 0
v -32 -80 0
v -48 -96 0
v -64 -96 0
v -64 -80 0
v -48 -80 0
v -64 -96 0
v -80 -96 0
v -80 -80 0
v -64 -80 0
v -80 -96 0
v -96 -96 0
v -96 -80 0
v -80 -80 0
v -96 -96 0
v -112 -96 0
v -112 -80 0
v -96 -80 0
v -112 -96 0
v -128 -96 0
v -128 -80 0
v -112 -80 0
v -128 -96 0
v -144 -96 0
v -144 -80 0
v -128 -80 0
v -144 -96 0
v -160 -96 0
v -160 -80 0
v -144 -80 0
v -160 -96 0
v -176 -96 0
v -176 -80 0
v -160 -80 0
v -176 -96 0
v -192 -96 0
v -192 -80 0
v -176 -80 0
v -192 -96 0
v -208 -96 0
v -208 -80 0
v -192 -80 0
v -208 -96 0
v -224 -96 0
v -224 -80 0
v -208 -80 0
v -224 -96 0
v -240 -96 0
v -240 -80 0
v -224 -80 0
v -240 -96 0
v -256 -96 0
v -256 -80 0
v -240 -80 0
v 0 -112 0
v -16 -112 0
v -16 -96 0
v 0 -96 0
v -16 -112 0
v -32 -112 0
v -32 -96 0
v -16 -96 0
v -32 -112 0
v -48 -112 0
v -48 -96 0
v -32 -96 0
v -48 -112 0
v -64 -112 0
v -64 -96 0
v -48 -96 0
v -64 -112 0
v -80 -112 0
v -80 -96 0
v -64 -96 0
v -80 -112 0
v -96 -112 0
v -96 -96 0
v -80 -96 0
v -96 -112 0
v -112 -112 0
v -112 -96 0
v -96 -96 0
v -112 -112 0
v -128 -112 0
v -128 -96 0
v -112 -96 0
v -128 -112 0
v -144 -112 0
v -144 -96 0
v -128 -96 0
v -144 -112 0
v -160 -112 0
v -160 -96 0
v -144 -96 0
v -160 -112 0
v -176 -112 0
v -176 -96 0
v -160 -96 0
v -176 -112 0
v -192 -112 0
v -192 -96 0
v -176 -96 0
v -192 -112 0
v -208 -112 0
v -208 -96 0
v -192 -96 0
v -208 -112 0
v -224 -112 0
v -224 -96 0
v -208 -96 0
v -224 -112 0
v -240 -112 0
v -240 -96 0
v -224 -96 0
v -240 -112 0
v -256 -112 0
v -256 -96 0
v -240 -96 0
v 0 -128 0
v -16 -128 0
v -16 -112 0
v 0 -112 0
v -16 -128 0
v -32 -128 0
v -32 -112 0
v -16 -112 0
v -32 -128 0
v -48 -128 0
v -48 -112 0
v -32 -112 0
v -48 -128 0
v -64 -128 0
v -64 -112 0
v -48 -112 0
v -64 -128 0
v -80 -128 0
v -80 -112 0
v -64 -112 0
v -80 -128 0
v -96 -128 0
v -96 -112 0
v -80 -112 0
v -96 -128 0
v -112 -128 0
v -112 -112 0
v -96 -112 0
v -112 -128 0
v -128 -128 0
v -128 -112 0
v -112 -112 0
v -128 -128 0
v -144 -128 0
v -144 -112 0
v -128 -112 0
v -144 -128 0
v -160 -128 0
v -160 -112 0
v -144 -112 0
v -160 -128 0
v -176 -128 0
v -176 -112 0
v -160 -112 0
v -176 -128 0
v -192 -128 0
v -192 -112 0
v -176 -112 0
v -192 -128 0
v -208 -128 0
v -208 -112 0
v -192 -112 0
v -208 -128 0
v -224 -128 0
v -224 -112 0
v -208 -112 0
v -224 -128 0
v -240 -128 0
v -240 -112 0
v -224 -112 0
v -240 -128 0
v -256 -128 0
v -256 -112 0
v -240 -112 0
v 0 -144 0
v -16 -144 0
v -16 -128 0
v 0 -128 0
v -16 -144 0
v -32 -144 0
v -32 -128 0
v -16 -128 0
v -32 -144 0
v -48 -144 0
v -48 -128 0
v -32 -128 0
v -48 -144 0
v -64 -144 0
v -64 -128 0
v -48 -128 0
v -64 -144 0
v -80 -144 0
v -80 -128 0
v -64 -128 0
v -80 -144 0
v -96 -144 0
v -96 -128 0
v -80 -128 0
v -96 -144 0
v -112 -144 0
v -112 -128 0
v -96 -128 0
v -112 -144 0
v -128 -144 0
v -128 -128 0
v -112 -128 0
v -128 -144 0
v -144 -144 0
v -144 -128 0
v -128 -128 0
v -144 -144 0
v -160 -144 0
v -160 -128 0
v -144 -128 0
v -160 -144 0
v -176 -144 0
v -176 -128 0
v -160 -128 0
v -176 -144 0
v -192 -144 0
v -192 -128 0
v -176 -128 0
v -192 -144 0
v -208 -144 0
v -208 -128 0
v -192 -128 0
v -208 -144 0
v -224 -144 0
v -224 -128 0
v -208 -128 0
v -224 -144 0
v -240 -144 0
v -240 -128 0
v -224 -128 0
v -240 -144 0
v -256 -144 0
v -256 -128 0
v -240 -128 0
v 0 -160 0
v -16 -160 0
v -16 -144 0
v 0 -144 0
v -16 -160 0
v -32 -160 0
v -32 -144 0
v -16 -144 0
v -32 -160 0
v -48 -160 0
v -48 -144 0
v -32 -144 0
v -48 -160 0
v -64 -160 0
v -64 -144 0
v -48 -144 0
v -64 -160 0
v -80 -160 0
v -80 -144 0
v -64 -144 0
v -80 -160 0
v -96 -160 0
v -96 -144 0
v -80 -144 0
v -96 -160 0
v -112 -160 0
v -112 -144 0
v -96 -144 0
v -112 -160 0
v -128 -160 0
v -128 -144 0
v -112 -144 0
v -128 -160 0
v -144 -160 0
v -144 -144 0
v -128 -144 0
v -144 -160 0
v -160 -160 0
v -160 -144 0
v -144 -144 0
v -160 -160 0
v -176 -160 0
v -176 -144 0
v -160 -144 0
v -176 -160 0
v -192 -160 0
v -192 -144 0
v -176 -144 0
v -192 -160 0
v -208 -160 0
v -208 -144 0
v -192 -144 0
v -208 -160 0
v -224 -160 0
v -224 -144 0
v -208 -144 0
v -224 -160 0
v -240 -160 0
v -240 -144 0
v -224 -144 0
v -240 -160 0
v -256 -160 0
v -256 -144 0
v -240 -144 0
v 0 -176 0
v -16 -176 0
v -16 -160 0
v 0 -160 0
v -16 -176 0
v -32 -176 0
v -32 -160 0
v -16 -160 0
v -32 -176 0
v -48 -176 0
v -48 -160 0
v -32 -160 0
v -48 -176 0
v -64 -176 0
v -64 -160 0
v -48 -160 0
v -64 -176 0
v -80 -176 0
v -80 -160 0
v -64 -160 0
v -80 -176 0
v -96 -176 0
v -96 -160 0
v -80 -160 0
v -96 -176 0
v -112 -176 0
v -112 -160 0
v -96 -160 0
v -112 -176 0
v -128 -176 0
v -128 -160 0
v -112 -160 0
v -128 -176 0
v -144 -176 0
v -144 -160 0
v -128 -160 0
v -144 -176 0
v -160 -176 0
v -160 -160 0
v -144 -160 0
v -160 -176 0
v -176 -176 0
v -176 -160 0
v -160 -160 0
v -176 -176 0
v -192 -176 0
v -192 -160 0
v -176 -160 0
v -192 -176 0
v -208 -176 0
v -208 -160 0
v -192 -160 0
v -208 -176 0
v -224 -176 0
v -224 -160 0
v -208 -160 0
v -224 -176 0
v -240 -176 0
v -240 -160 0
v -224 -160 0
v -240 -176 0
v -256 -176 0
v -256 -160 0
v -240 -160 0
v 0 -192 0
v -16 -192 0
v -16 -176 0
v 0 -176 0
v -16 -192 0
v -32 -192 0
v -32 -176 0
v -16 -176 0
v -32 -192 0
v -48 -192 0
v -48 -176 0
v -32 -176 0
v -48 -192 0
v -64 -192 0
v -64 -176 0
v -48 -176 0
v -64 -192 0
v -80 -192 0
v -80 -176 0
v -64 -176 0
v -80 -192 0
v -96 -192 0
v -96 -176 0
v -80 -176 0
v -96 -192 0
v -112 -192 0
v -112 -176 0
v -96 -176 0
v -112 -192 0
v -128 -192 0
v -128 -176 0
v -112 -176 0
v -128 -192 0
v -144 -192 0
v -144 -176 0
v -128 -176 0
v -144 -192 0
v -160 -192 0
v -160 -176 0
v -144 -176 0
v -160 -192 0
v -176 -192 0
v -176 -176 0
v -160 -176 0
v -176 -192 0
v -192 -192 0
v -192 -176 0
v -176 -176 0
v -192 -192 0
v -208 -192 0
v -208 -176 0
v -192 -176 0
v -208 -192 0
v -224 -192 0
v -224 -176 0
v -208 -176 0
v -224 -192 0
v -240 -192 0
v -240 -176 0
v -224 -176 0
v -240 -192 0
v -256 -192 0
v -256 -176 0
v -240 -176 0
v 0 -208 0
v -16 -208 0
v -16 -192 0
v 0 -192 0
v -16 -208 0
v -32 -208 0
v -32 -192 0
v -16 -192 0
v -32 -208 0
v -48 -208 0
v -48 -192 0
v -32 -192 0
v -48 -208 0
v -64 -208 0
v -64 -192 0
v -48 -192 0
v -64 -208 0
v -80 -208 0
v -80 -192 0
v -64 -192 0
v -80 -208 0
v -96 -208 0
v -96 -192 0
v -80 -192 0
v -96 -208 0
v -112 -208 0
v -112 -192 0
v -96 -192 0
v -112 -208 0
v -128 -208 0
v -128 -192 0
v -112 -192 0
v -128 -208 0
v -144 -208 0
v -144 -192 0
v -128 -192 0
v -144 -208 0
v -160 -208 0
v -160 -192 0
v -144 -192 0
v -160 -208 0
v -176 -208 0
v -176 -192 0
v -160 -192 0
v -176 -208 0
v -192 -208 0
v -192 -192 0
v -176 -192 0
v -192 -208 0
v -208 -208 0
v -208 -192 0
v -192 -192 0
v -208 -208 0
v -224 -208 0
v -224 -192 0
v -208 -192 0
v -224 -208 0
v -240 -208 0
v -240 -192 0
v -224 -192 0
v -240 -208 0
v -256 -208 0
v -256 -192 0
v -240 -192 0
v 0 -224 0
v -16 -224 0
v -16 -208 0
v 0 -208 0
v -16 -224 0
v -32 -224 0
v -32 -208 0
v -16 -208 0
v -32 -224 0
v -48 -224 0
v -48 -208 0
v -32 -208 0
v -48 -224 0
v -64 -224 0
v -64 -208 0
v -48 -208 0
v -64 -224 0
v -80 -224 0
v -80 -208 0
v -64 -208 0
v -80 -224 0
v -96 -224 0
v -96 -208 0
v -80 -208 0
v -96 -224 0
v -112 -224 0
v -112 -208 0
v -96 -208 0
v -112 -224 0
v -128 -224 0
v -128 -208 0
v -112 -208 0
v -128 -224 0
v -144 -224 0
v -144 -208 0
v -128 -208 0
v -144 -224 0
v -160 -224 0
v -160 -208 0
v -144 -208 0
v -160 -224 0
v -176 -224 0
v -176 -208 0
v -160 -208 0
v -176 -224 0
v -192 -224 0
v -192 -208 0
v -176 -208 0
v -192 -224 0
v -208 -224 0
v -208 -208 0
v -192 -208 0
v -208 -224 0
v -224 -224 0
v -224 -208 0
v -208 -208 0
v -224 -224 0
v -240 -224 0
v -240 -208 0
v -224 -208 0
v -240 -224 0
v -256 -224 0
v -256 -208 0
v -240 -208 0

# Texture cooridinates (Count = 22)
vt 0 0.5
vt 0.125 0.5
vt 0.125 0.625
vt 0 0.625
vt 0.25 0.5
vt 0.25 0.625
vt 0.375 0.5
vt 0.375 0.625
vt 0.75 0.5
vt 0.875 0.5
vt 0.875 0.625
vt 0.75 0.625
vt 0.625 0.5
vt 0.625 0.625
vt 1 0.5
vt 1 0.625
vt 0.25 0.75
vt 0.375 0.75
vt 0.375 0.875
vt 0.25 0.875
vt 0.375 1
vt 0.25 1

# Normal
vn 0 0 -1

# Mesh description
g RedDragon-WithSlopes_mesh_0001

# Faces
f 1/1/1 2/2/1 3/3/1 4/4/1
f 5/1/1 6/2/1 7/3/1 8/4/1
f 9/1/1 10/2/1 11/3/1 12/4/1
f 13/1/1 14/2/1 15/3/1 16/4/1
f 17/1/1 18/2/1 19/3/1 20/4/1
f 21/1/1 22/2/1 23/3/1 24/4/1
f 25/1/1 26/2/1 27/3/1 28/4/1
f 29/1/1 30/2/1 31/3/1 32/4/1
f 33/1/1 34/2/1 35/3/1 36/4/1
f 37/1/1 38/2/1 39/3/1 40/4/1
f 41/1/1 42/2/1 43/3/1 44/4/1
f 45/1/1 46/2/1 47/3/1 48/4/1
f 49/1/1 50/2/1 51/3/1 52/4/1
f 53/1/1 54/2/1 55/3/1 56/4/1
f 57/1/1 58/2/1 59/3/1 60/4/1
f 61/1/1 62/2/1 63/3/1 64/4/1
f 65/1/1 66/2/1 67/3/1 68/4/1
f 69/2/1 70/5/1 71/6/1 72/3/1
f 73/5/1 74/7/1 75/8/1 76/6/1
f 77/1/1 78/2/1 79/3/1 80/4/1
f 81/1/1 82/2/1 83/3/1 84/4/1
f 85/1/1 86/2/1 87/3/1 88/4/1
f 89/1/1 90/2/1 91/3/1 92/4/1
f 93/2/1 94/5/1 95/6/1 96/3/1
f 97/5/1 98/7/1 99/8/1 100/6/1
f 101/1/1 102/2/1 103/3/1 104/4/1
f 105/1/1 106/2/1 107/3/1 108/4/1
f 109/1/1 110/2/1 111/3/1 112/4/1
f 113/1/1 114/2/1 115/3/1 116/4/1
f 117/1/1 118/2/1 119/3/1 120/4/1
f 121/1/1 122/2/1 123/3/1 124/4/1
f 125/1/1 126/2/1 127/3/1 128/4/1
f 129/1/1 130/2/1 131/3/1 132/4/1
f 133/2/1 134/5/1 135/6/1 136/3/1
f 137/5/1 138/7/1 139/8/1 140/6/1
f 141/9/1 142/10/1 143/11/1 144/12/1
f 145/13/1 146/9/1 147/12/1 148/14/1
f 149/9/1 150/10/1 151/11/1 152/12/1
f 153/13/1 154/9/1 155/12/1 156/14/1
f 157/2/1 158/5/1 159/6/1 160/3/1
f 161/5/1 162/7/1 163/8/1 164/6/1
f 165/9/1 166/10/1 167/11/1 168/12/1
f 169/13/1 170/9/1 171/12/1 172/14/1
f 173/9/1 174/10/1 175/11/1 176/12/1
f 177/13/1 178/9/1 179/12/1 180/14/1
f 181/9/1 182/10/1 183/11/1 184/12/1
f 185/13/1 186/9/1 187/12/1 188/14/1
f 189/1/1 190/2/1 191/3/1 192/4/1
f 193/1/1 194/2/1 195/3/1 196/4/1
f 197/2/1 198/5/1 199/6/1 200/3/1
f 201/5/1 202/7/1 203/8/1 204/6/1
f 205/9/1 206/10/1 207/11/1 208/12/1
f 209/10/1 210/15/1 211/16/1 212/11/1
f 213/9/1 214/10/1 215/11/1 216/12/1
f 217/10/1 218/15/1 219/16/1 220/11/1
f 221/2/1 222/5/1 223/6/1 224/3/1
f 225/5/1 226/7/1 227/8/1 228/6/1
f 229/9/1 230/10/1 231/11/1 232/12/1
f 233/10/1 234/15/1 235/16/1 236/11/1
f 237/9/1 238/10/1 239/11/1 240/12/1
f 241/10/1 242/15/1 243/16/1 244/11/1
f 245/9/1 246/10/1 247/11/1 248/12/1
f 249/10/1 250/15/1 251/16/1 252/11/1
f 253/1/1 254/2/1 255/3/1 256/4/1
f 257/17/1 258/18/1 259/19/1 260/20/1
f 261/2/1 262/5/1 263/6/1 264/3/1
f 265/5/1 266/7/1 267/8/1 268/6/1
f 269/17/1 270/18/1 271/19/1 272/20/1
f 273/17/1 274/18/1 275/19/1 276/20/1
f 277/17/1 278/18/1 279/19/1 280/20/1
f 281/17/1 282/18/1 283/19/1 284/20/1
f 285/2/1 286/5/1 287/6/1 288/3/1
f 289/5/1 290/7/1 291/8/1 292/6/1
f 293/17/1 294/18/1 295/19/1 296/20/1
f 297/17/1 298/18/1 299/19/1 300/20/1
f 301/17/1 302/18/1 303/19/1 304/20/1
f 305/17/1 306/18/1 307/19/1 308/20/1
f 309/17/1 310/18/1 311/19/1 312/20/1
f 313/17/1 314/18/1 315/19/1 316/20/1
f 317/17/1 318/18/1 319/19/1 320/20/1
f 321/20/1 322/19/1 323/21/1 324/22/1
f 325/1/1 326/2/1 327/3/1 328/4/1
f 329/1/1 330/2/1 331/3/1 332/4/1
f 333/1/1 334/2/1 335/3/1 336/4/1
f 337/1/1 338/2/1 339/3/1 340/4/1
f 341/20/1 342/19/1 343/21/1 344/22/1
f 345/20/1 346/19/1 347/21/1 348/22/1
f 349/2/1 350/5/1 351/6/1 352/3/1
f 353/5/1 354/7/1 355/8/1 356/6/1
f 357/20/1 358/19/1 359/21/1 360/22/1
f 361/20/1 362/19/1 363/21/1 364/22/1
f 365/20/1 366/19/1 367/21/1 368/22/1
f 369/20/1 370/19/1 371/21/1 372/22/1
f 373/20/1 374/19/1 375/21/1 376/22/1
f 377/20/1 378/19/1 379/21/1 380/22/1
f 381/20/1 382/19/1 383/21/1 384/22/1
f 385/20/1 386/19/1 387/21/1 388/22/1
f 389/2/1 390/5/1 391/6/1 392/3/1
f 393/5/1 394/7/1 395/8/1 396/6/1
f 397/20/1 398/19/1 399/21/1 400/22/1
f 401/20/1 402/19/1 403/21/1 404/22/1
f 405/20/1 406/19/1 407/21/1 408/22/1
f 409/20/1 410/19/1 411/21/1 412/22/1
f 413/1/1 414/2/1 415/3/1 416/4/1
f 417/1/1 418/2/1 419/3/1 420/4/1
f 421/1/1 422/2/1 423/3/1 424/4/1
f 425/1/1 426/2/1 427/3/1 428/4/1
f 429/1/1 430/2/1 431/3/1 432/4/1
f 433/20/1 434/19/1 435/21/1 436/22/1
f 437/20/1 438/19/1 439/21/1 440/22/1
f 441/20/1 442/19/1 443/21/1 444/22/1
f 445/20/1 446/19/1 447/21/1 448/22/1
f 449/20/1 450/19/1 451/21/1 452/22/1
f 453/2/1 454/5/1 455/6/1 456/3/1
f 457/5/1 458/7/1 459/8/1 460/6/1
f 461/20/1 462/19/1 463/21/1 464/22/1
f 465/20/1 466/19/1 467/21/1 468/22/1
f 469/20/1 470/19/1 471/21/1 472/22/1
f 473/20/1 474/19/1 475/21/1 476/22/1
f 477/2/1 478/5/1 479/6/1 480/3/1
f 481/5/1 482/7/1 483/8/1 484/6/1
f 485/20/1 486/19/1 487/21/1 488/22/1
f 489/20/1 490/19/1 491/21/1 492/22/1
f 493/20/1 494/19/1 495/21/1 496/22/1
f 497/20/1 498/19/1 499/21/1 500/22/1
f 501/20/1 502/19/1 503/21/1 504/22/1
f 505/20/1 506/19/1 507/21/1 508/22/1
f 509/20/1 510/19/1 511/21/1 512/22/1
f 513/17/1 514/18/1 515/19/1 516/20/1
f 517/2/1 518/5/1 519/6/1 520/3/1
f 521/5/1 522/7/1 523/8/1 524/6/1
f 525/17/1 526/18/1 527/19/1 528/20/1
f 529/17/1 530/18/1 531/19/1 532/20/1
f 533/17/1 534/18/1 535/19/1 536/20/1
f 537/17/1 538/18/1 539/19/1 540/20/1
f 541/2/1 542/5/1 543/6/1 544/3/1
f 545/5/1 546/7/1 547/8/1 548/6/1
f 549/17/1 550/18/1 551/19/1 552/20/1
f 553/17/1 554/18/1 555/19/1 556/20/1
f 557/17/1 558/18/1 559/19/1 560/20/1
f 561/17/1 562/18/1 563/19/1 564/20/1
f 565/17/1 566/18/1 567/19/1 568/20/1
f 569/17/1 570/18/1 571/19/1 572/20/1
f 573/17/1 574/18/1 575/19/1 576/20/1
f 577/20/1 578/19/1 579/21/1 580/22/1
f 581/2/1 582/5/1 583/6/1 584/3/1
f 585/5/1 586/7/1 587/8/1 588/6/1
f 589/20/1 590/19/1 591/21/1 592/22/1
f 593/20/1 594/19/1 595/21/1 596/22/1
f 597/1/1 598/2/1 599/3/1 600/4/1
f 601/1/1 602/2/1 603/3/1 604/4/1
f 605/1/1 606/2/1 607/3/1 608/4/1
f 609/1/1 610/2/1 611/3/1 612/4/1
f 613/1/1 614/2/1 615/3/1 616/4/1
f 617/20/1 618/19/1 619/21/1 620/22/1
f 621/20/1 622/19/1 623/21/1 624/22/1
f 625/20/1 626/19/1 627/21/1 628/22/1
f 629/20/1 630/19/1 631/21/1 632/22/1
f 633/20/1 634/19/1 635/21/1 636/22/1
f 637/20/1 638/19/1 639/21/1 640/22/1
f 641/20/1 642/19/1 643/21/1 644/22/1
f 645/2/1 646/5/1 647/6/1 648/3/1
f 649/5/1 650/7/1 651/8/1 652/6/1
f 653/20/1 654/19/1 655/21/1 656/22/1
f 657/20/1 658/19/1 659/21/1 660/22/1
f 661/20/1 662/19/1 663/21/1 664/22/1
f 665/20/1 666/19/1 667/21/1 668/22/1
f 669/2/1 670/5/1 671/6/1 672/3/1
f 673/5/1 674/7/1 675/8/1 676/6/1
f 677/20/1 678/19/1 679/21/1 680/22/1
f 681/20/1 682/19/1 683/21/1 684/22/1
f 685/20/1 686/19/1 687/21/1 688/22/1
f 689/20/1 690/19/1 691/21/1 692/22/1
f 693/20/1 694/19/1 695/21/1 696/22/1
f 697/20/1 698/19/1 699/21/1 700/22/1
f 701/20/1 702/19/1 703/21/1 704/22/1
f 705/20/1 706/19/1 707/21/1 708/22/1
f 709/2/1 710/5/1 711/6/1 712/3/1
f 713/5/1 714/7/1 715/8/1 716/6/1
f 717/20/1 718/19/1 719/21/1 720/22/1
f 721/20/1 722/19/1 723/21/1 724/22/1
f 725/20/1 726/19/1 727/21/1 728/22/1
f 729/20/1 730/19/1 731/21/1 732/22/1
f 733/2/1 734/5/1 735/6/1 736/3/1
f 737/5/1 738/7/1 739/8/1 740/6/1
f 741/20/1 742/19/1 743/21/1 744/22/1
f 745/20/1 746/19/1 747/21/1 748/22/1
f 749/20/1 750/19/1 751/21/1 752/22/1
f 753/20/1 754/19/1 755/21/1 756/22/1
f 757/20/1 758/19/1 759/21/1 760/22/1
f 761/20/1 762/19/1 763/21/1 764/22/1
f 765/20/1 766/19/1 767/21/1 768/22/1
f 769/20/1 770/19/1 771/21/1 772/22/1
f 773/2/1 774/5/1 775/6/1 776/3/1
f 777/5/1 778/7/1 779/8/1 780/6/1
f 781/20/1 782/19/1 783/21/1 784/22/1
f 785/20/1 786/19/1 787/21/1 788/22/1
f 789/20/1 790/19/1 791/21/1 792/22/1
f 793/20/1 794/19/1 795/21/1 796/22/1
f 797/2/1 798/5/1 799/6/1 800/3/1
f 801/5/1 802/7/1 803/8/1 804/6/1
f 805/20/1 806/19/1 807/21/1 808/22/1
f 809/20/1 810/19/1 811/21/1 812/22/1
f 813/20/1 814/19/1 815/21/1 816/22/1
f 817/20/1 818/19/1 819/21/1 820/22/1
f 821/20/1 822/19/1 823/21/1 824/22/1
f 825/20/1 826/19/1 827/21/1 828/22/1
f 829/20/1 830/19/1 831/21/1 832/22/1
f 833/20/1 834/19/1 835/21/1 836/22/1
f 837/2/1 838/5/1 839/6/1 840/3/1
f 841/5/1 842/7/1 843/8/1 844/6/1
f 845/20/1 846/19/1 847/21/1 848/22/1
f 849/20/1 850/19/1 851/21/1 852/22/1
f 853/20/1 854/19/1 855/21/1 856/22/1
f 857/20/1 858/19/1 859/21/1 860/22/1
f 861/2/1 862/5/1 863/6/1 864/3/1
f 865/5/1 866/7/1 867/8/1 868/6/1
f 869/20/1 870/19/1 871/21/1 872/22/1
f 873/20/1 874/19/1 875/21/1 876/22/1
f 877/20/1 878/19/1 879/21/1 880/22/1
f 881/20/1 882/19/1 883/21/1 884/22/1
f 885/20/1 886/19/1 887/21/1 888/22/1
f 889/20/1 890/19/1 891/21/1 892/22/1
f 893/20/1 894/19/1 895/21/1 896/22/1

